<svg width="100%" height="100%" viewBox="0 0 37 30" fill="none" xmlns="http://www.w3.org/2000/svg">
<path fill-rule="evenodd" clip-rule="evenodd" d="M16.3476 29.0205C21.4374 29.0205 26.5272 27.9816 28.8788 25.9199C30.8506 24.1911 32.0298 21.0126 32.3592 17.0253C32.3892 16.6621 33.275 16.3634 34.2107 16.0479C35.2535 15.6964 36.3581 15.3239 36.4089 14.8181C36.3605 14.4332 35.3586 13.9953 34.3634 13.5604C33.3736 13.1278 32.3906 12.6981 32.3592 12.3265C32.0169 8.27958 30.7695 5.01019 28.8788 3.33654C24.1917 -0.802936 8.50356 -0.802936 3.81646 3.33654C1.5776 5.31838 0.240723 9.53777 0.240723 14.6362C0.240723 19.7346 1.5776 23.954 3.81646 25.9359C6.05532 27.9177 11.2579 29.0205 16.3476 29.0205ZM13.5362 8.17525C13.2902 8.42 13.152 8.75195 13.152 9.09808V20.8438C13.152 21.1899 13.2902 21.5219 13.5362 21.7666C13.7822 22.0114 14.1159 22.1489 14.4637 22.1489C14.8116 22.1489 15.1453 22.0114 15.3913 21.7666C15.6372 21.5219 15.7754 21.1899 15.7754 20.8438V9.09808C15.7754 8.75195 15.6372 8.42 15.3913 8.17525C15.1453 7.93049 14.8116 7.793 14.4637 7.793C14.1159 7.793 13.7822 7.93049 13.5362 8.17525ZM21.0221 13.6659C21.0221 13.3197 21.1603 12.9878 21.4063 12.743C21.6523 12.4983 21.9859 12.3608 22.3338 12.3608C22.6817 12.3608 23.0153 12.4983 23.2613 12.743C23.5073 12.9878 23.6455 13.3197 23.6455 13.6659V16.276C23.6455 16.6222 23.5073 16.9541 23.2613 17.1989C23.0153 17.4436 22.6817 17.5811 22.3338 17.5811C21.9859 17.5811 21.6523 17.4436 21.4063 17.1989C21.1603 16.9541 21.0221 16.6222 21.0221 16.276V13.6659ZM17.087 11.7082C17.087 11.3621 17.2252 11.0302 17.4712 10.7854C17.7172 10.5407 18.0508 10.4032 18.3987 10.4032C18.7466 10.4032 19.0802 10.5407 19.3262 10.7854C19.5722 11.0302 19.7104 11.3621 19.7104 11.7082V18.2336C19.7104 18.5798 19.5722 18.9117 19.3262 19.1565C19.0802 19.4012 18.7466 19.5387 18.3987 19.5387C18.0508 19.5387 17.7172 19.4012 17.4712 19.1565C17.2252 18.9117 17.087 18.5798 17.087 18.2336V11.7082ZM9.21679 11.7082C9.21679 11.3621 9.35499 11.0302 9.60098 10.7854C9.84697 10.5407 10.1806 10.4032 10.5285 10.4032C10.8764 10.4032 11.21 10.5407 11.456 10.7854C11.702 11.0302 11.8402 11.3621 11.8402 11.7082V18.2336C11.8402 18.5798 11.702 18.9117 11.456 19.1565C11.21 19.4012 10.8764 19.5387 10.5285 19.5387C10.1806 19.5387 9.84697 19.4012 9.60098 19.1565C9.35499 18.9117 9.21679 18.5798 9.21679 18.2336V11.7082ZM5.28169 13.6659C5.28169 13.3197 5.41989 12.9878 5.66588 12.743C5.91187 12.4983 6.24551 12.3608 6.59339 12.3608C6.94128 12.3608 7.27491 12.4983 7.5209 12.743C7.7669 12.9878 7.90509 13.3197 7.90509 13.6659V16.276C7.90509 16.6222 7.7669 16.9541 7.5209 17.1989C7.27491 17.4436 6.94128 17.5811 6.59339 17.5811C6.24551 17.5811 5.91187 17.4436 5.66588 17.1989C5.41989 16.9541 5.28169 16.6222 5.28169 16.276V13.6659ZM24.9572 10.0209C24.9572 9.67478 25.0954 9.34283 25.3414 9.09808C25.5874 8.85333 25.921 8.71583 26.2689 8.71583C26.6168 8.71583 26.9504 8.85333 27.1964 9.09808C27.4424 9.34283 27.5806 9.67478 27.5806 10.0209V19.9226C27.5806 20.2687 27.4424 20.6007 27.1964 20.8454C26.9504 21.0902 26.6168 21.2277 26.2689 21.2277C25.921 21.2277 25.5874 21.0902 25.3414 20.8454C25.0954 20.6007 24.9572 20.2687 24.9572 19.9226V10.0209Z" fill="url(#paint0_linear_355_872)"></path>
<path fill-rule="evenodd" clip-rule="evenodd" d="M16.3476 29.0205C21.4374 29.0205 26.5272 27.9816 28.8788 25.9199C30.8506 24.1911 32.0298 21.0126 32.3592 17.0253C32.3892 16.6621 33.275 16.3634 34.2107 16.0479C35.2535 15.6964 36.3581 15.3239 36.4089 14.8181C36.3605 14.4332 35.3586 13.9953 34.3634 13.5604C33.3736 13.1278 32.3906 12.6981 32.3592 12.3265C32.0169 8.27958 30.7695 5.01019 28.8788 3.33654C24.1917 -0.802936 8.50356 -0.802936 3.81646 3.33654C1.5776 5.31838 0.240723 9.53777 0.240723 14.6362C0.240723 19.7346 1.5776 23.954 3.81646 25.9359C6.05532 27.9177 11.2579 29.0205 16.3476 29.0205ZM13.5362 8.17525C13.2902 8.42 13.152 8.75195 13.152 9.09808V20.8438C13.152 21.1899 13.2902 21.5219 13.5362 21.7666C13.7822 22.0114 14.1159 22.1489 14.4637 22.1489C14.8116 22.1489 15.1453 22.0114 15.3913 21.7666C15.6372 21.5219 15.7754 21.1899 15.7754 20.8438V9.09808C15.7754 8.75195 15.6372 8.42 15.3913 8.17525C15.1453 7.93049 14.8116 7.793 14.4637 7.793C14.1159 7.793 13.7822 7.93049 13.5362 8.17525ZM21.0221 13.6659C21.0221 13.3197 21.1603 12.9878 21.4063 12.743C21.6523 12.4983 21.9859 12.3608 22.3338 12.3608C22.6817 12.3608 23.0153 12.4983 23.2613 12.743C23.5073 12.9878 23.6455 13.3197 23.6455 13.6659V16.276C23.6455 16.6222 23.5073 16.9541 23.2613 17.1989C23.0153 17.4436 22.6817 17.5811 22.3338 17.5811C21.9859 17.5811 21.6523 17.4436 21.4063 17.1989C21.1603 16.9541 21.0221 16.6222 21.0221 16.276V13.6659ZM17.087 11.7082C17.087 11.3621 17.2252 11.0302 17.4712 10.7854C17.7172 10.5407 18.0508 10.4032 18.3987 10.4032C18.7466 10.4032 19.0802 10.5407 19.3262 10.7854C19.5722 11.0302 19.7104 11.3621 19.7104 11.7082V18.2336C19.7104 18.5798 19.5722 18.9117 19.3262 19.1565C19.0802 19.4012 18.7466 19.5387 18.3987 19.5387C18.0508 19.5387 17.7172 19.4012 17.4712 19.1565C17.2252 18.9117 17.087 18.5798 17.087 18.2336V11.7082ZM9.21679 11.7082C9.21679 11.3621 9.35499 11.0302 9.60098 10.7854C9.84697 10.5407 10.1806 10.4032 10.5285 10.4032C10.8764 10.4032 11.21 10.5407 11.456 10.7854C11.702 11.0302 11.8402 11.3621 11.8402 11.7082V18.2336C11.8402 18.5798 11.702 18.9117 11.456 19.1565C11.21 19.4012 10.8764 19.5387 10.5285 19.5387C10.1806 19.5387 9.84697 19.4012 9.60098 19.1565C9.35499 18.9117 9.21679 18.5798 9.21679 18.2336V11.7082ZM5.28169 13.6659C5.28169 13.3197 5.41989 12.9878 5.66588 12.743C5.91187 12.4983 6.24551 12.3608 6.59339 12.3608C6.94128 12.3608 7.27491 12.4983 7.5209 12.743C7.7669 12.9878 7.90509 13.3197 7.90509 13.6659V16.276C7.90509 16.6222 7.7669 16.9541 7.5209 17.1989C7.27491 17.4436 6.94128 17.5811 6.59339 17.5811C6.24551 17.5811 5.91187 17.4436 5.66588 17.1989C5.41989 16.9541 5.28169 16.6222 5.28169 16.276V13.6659ZM24.9572 10.0209C24.9572 9.67478 25.0954 9.34283 25.3414 9.09808C25.5874 8.85333 25.921 8.71583 26.2689 8.71583C26.6168 8.71583 26.9504 8.85333 27.1964 9.09808C27.4424 9.34283 27.5806 9.67478 27.5806 10.0209V19.9226C27.5806 20.2687 27.4424 20.6007 27.1964 20.8454C26.9504 21.0902 26.6168 21.2277 26.2689 21.2277C25.921 21.2277 25.5874 21.0902 25.3414 20.8454C25.0954 20.6007 24.9572 20.2687 24.9572 19.9226V10.0209Z" fill="url(#paint1_radial_355_872)"></path>
<path fill-rule="evenodd" clip-rule="evenodd" d="M16.3476 29.0205C21.4374 29.0205 26.5272 27.9816 28.8788 25.9199C30.8506 24.1911 32.0298 21.0126 32.3592 17.0253C32.3892 16.6621 33.275 16.3634 34.2107 16.0479C35.2535 15.6964 36.3581 15.3239 36.4089 14.8181C36.3605 14.4332 35.3586 13.9953 34.3634 13.5604C33.3736 13.1278 32.3906 12.6981 32.3592 12.3265C32.0169 8.27958 30.7695 5.01019 28.8788 3.33654C24.1917 -0.802936 8.50356 -0.802936 3.81646 3.33654C1.5776 5.31838 0.240723 9.53777 0.240723 14.6362C0.240723 19.7346 1.5776 23.954 3.81646 25.9359C6.05532 27.9177 11.2579 29.0205 16.3476 29.0205ZM13.5362 8.17525C13.2902 8.42 13.152 8.75195 13.152 9.09808V20.8438C13.152 21.1899 13.2902 21.5219 13.5362 21.7666C13.7822 22.0114 14.1159 22.1489 14.4637 22.1489C14.8116 22.1489 15.1453 22.0114 15.3913 21.7666C15.6372 21.5219 15.7754 21.1899 15.7754 20.8438V9.09808C15.7754 8.75195 15.6372 8.42 15.3913 8.17525C15.1453 7.93049 14.8116 7.793 14.4637 7.793C14.1159 7.793 13.7822 7.93049 13.5362 8.17525ZM21.0221 13.6659C21.0221 13.3197 21.1603 12.9878 21.4063 12.743C21.6523 12.4983 21.9859 12.3608 22.3338 12.3608C22.6817 12.3608 23.0153 12.4983 23.2613 12.743C23.5073 12.9878 23.6455 13.3197 23.6455 13.6659V16.276C23.6455 16.6222 23.5073 16.9541 23.2613 17.1989C23.0153 17.4436 22.6817 17.5811 22.3338 17.5811C21.9859 17.5811 21.6523 17.4436 21.4063 17.1989C21.1603 16.9541 21.0221 16.6222 21.0221 16.276V13.6659ZM17.087 11.7082C17.087 11.3621 17.2252 11.0302 17.4712 10.7854C17.7172 10.5407 18.0508 10.4032 18.3987 10.4032C18.7466 10.4032 19.0802 10.5407 19.3262 10.7854C19.5722 11.0302 19.7104 11.3621 19.7104 11.7082V18.2336C19.7104 18.5798 19.5722 18.9117 19.3262 19.1565C19.0802 19.4012 18.7466 19.5387 18.3987 19.5387C18.0508 19.5387 17.7172 19.4012 17.4712 19.1565C17.2252 18.9117 17.087 18.5798 17.087 18.2336V11.7082ZM9.21679 11.7082C9.21679 11.3621 9.35499 11.0302 9.60098 10.7854C9.84697 10.5407 10.1806 10.4032 10.5285 10.4032C10.8764 10.4032 11.21 10.5407 11.456 10.7854C11.702 11.0302 11.8402 11.3621 11.8402 11.7082V18.2336C11.8402 18.5798 11.702 18.9117 11.456 19.1565C11.21 19.4012 10.8764 19.5387 10.5285 19.5387C10.1806 19.5387 9.84697 19.4012 9.60098 19.1565C9.35499 18.9117 9.21679 18.5798 9.21679 18.2336V11.7082ZM5.28169 13.6659C5.28169 13.3197 5.41989 12.9878 5.66588 12.743C5.91187 12.4983 6.24551 12.3608 6.59339 12.3608C6.94128 12.3608 7.27491 12.4983 7.5209 12.743C7.7669 12.9878 7.90509 13.3197 7.90509 13.6659V16.276C7.90509 16.6222 7.7669 16.9541 7.5209 17.1989C7.27491 17.4436 6.94128 17.5811 6.59339 17.5811C6.24551 17.5811 5.91187 17.4436 5.66588 17.1989C5.41989 16.9541 5.28169 16.6222 5.28169 16.276V13.6659ZM24.9572 10.0209C24.9572 9.67478 25.0954 9.34283 25.3414 9.09808C25.5874 8.85333 25.921 8.71583 26.2689 8.71583C26.6168 8.71583 26.9504 8.85333 27.1964 9.09808C27.4424 9.34283 27.5806 9.67478 27.5806 10.0209V19.9226C27.5806 20.2687 27.4424 20.6007 27.1964 20.8454C26.9504 21.0902 26.6168 21.2277 26.2689 21.2277C25.921 21.2277 25.5874 21.0902 25.3414 20.8454C25.0954 20.6007 24.9572 20.2687 24.9572 19.9226V10.0209Z" fill="#353535" fill-opacity="0.05"></path>
<defs>
<linearGradient id="paint0_linear_355_872" x1="-4.38004" y1="-3.85717" x2="2.76114" y2="31.0085" gradientUnits="userSpaceOnUse">
<stop stop-color="#32F680" stop-opacity="0.9"></stop>
<stop offset="1" stop-color="#F69A32"></stop>
</linearGradient>
<radialGradient id="paint1_radial_355_872" cx="0" cy="0" r="1" gradientUnits="userSpaceOnUse" gradientTransform="translate(48.1286 -4.27725) rotate(128.873) scale(52.877)">
<stop stop-color="#F332F6" stop-opacity="0.8"></stop>
<stop offset="1" stop-color="#F332F6" stop-opacity="0"></stop>
</radialGradient>
</defs>
</svg>