<svg xmlns="http://www.w3.org/2000/svg" xmlns:xlink="http://www.w3.org/1999/xlink" width="1080" zoomAndPan="magnify" viewBox="0 0 810 434.999989" height="580" preserveAspectRatio="xMidYMid meet" version="1.2"><defs><clipPath id="b354c154ab"><path d="M 66.234375 217.5 L 300.234375 217.5 L 300.234375 313.5 L 66.234375 313.5 Z M 66.234375 217.5 "/></clipPath></defs><g id="71859bf039"><g clip-rule="nonzero" clip-path="url(#b354c154ab)"><path style=" stroke:none;fill-rule:nonzero;fill:#ffffff;fill-opacity:1;" d="M 67.992188 260.273438 C 66.773438 261.847656 65.902344 264.117188 67.121094 264.988281 C 86.449219 279.832031 105.078125 295.722656 123.1875 312.488281 C 126.324219 315.28125 134.855469 306.726562 131.71875 303.929688 C 118.660156 291.882812 105.425781 280.355469 91.847656 269.179688 C 114.65625 279.832031 139.730469 285.421875 164.976562 285.246094 C 196.496094 285.421875 227.664062 276.515625 254.652344 260.273438 C 270.671875 250.84375 285.125 238.796875 297.484375 225 C 298.703125 223.777344 301.316406 220.460938 299.75 218.539062 C 298.007812 216.792969 294.351562 219.410156 293.308594 220.808594 C 273.109375 243.511719 246.988281 260.273438 217.5625 268.832031 C 189.703125 277.214844 159.929688 277.738281 131.71875 271.101562 C 120.402344 268.480469 109.605469 264.640625 99.160156 259.75 C 109.605469 259.050781 119.707031 257.304688 129.628906 253.636719 C 132.242188 252.765625 134.679688 250.320312 135.726562 247.527344 C 136.59375 245.257812 135.027344 243.683594 132.765625 244.558594 C 113.960938 251.542969 93.585938 251.019531 73.738281 250.667969 C 71.125 250.496094 68.339844 253.636719 67.121094 255.910156 C 65.902344 257.480469 65.726562 260.101562 67.992188 260.273438 Z M 67.992188 260.273438 "/></g><g style="fill:#ffffff;fill-opacity:1;"><g transform="translate(190.226256, 190.272467)"><path style="stroke:none" d="M 5.046875 -46.046875 C 4.578125 -46.046875 4.191406 -46.179688 3.890625 -46.453125 C 3.597656 -46.734375 3.453125 -47.128906 3.453125 -47.640625 C 3.453125 -48.109375 3.597656 -48.484375 3.890625 -48.765625 C 4.191406 -49.046875 4.578125 -49.1875 5.046875 -49.1875 C 6.585938 -49.132812 8.316406 -49.078125 10.234375 -49.015625 C 12.148438 -48.953125 14.066406 -48.910156 15.984375 -48.890625 C 17.898438 -48.867188 19.628906 -48.859375 21.171875 -48.859375 C 24.328125 -48.859375 27.457031 -48.890625 30.5625 -48.953125 C 33.675781 -49.015625 36.769531 -49.113281 39.84375 -49.25 C 40.394531 -49.25 40.804688 -49.109375 41.078125 -48.828125 C 41.359375 -48.546875 41.5 -48.171875 41.5 -47.703125 C 41.5 -47.273438 41.359375 -46.898438 41.078125 -46.578125 C 40.804688 -46.265625 40.394531 -46.109375 39.84375 -46.109375 C 36.769531 -45.984375 33.695312 -45.875 30.625 -45.78125 C 27.5625 -45.695312 24.472656 -45.65625 21.359375 -45.65625 C 18.671875 -45.65625 15.972656 -45.6875 13.265625 -45.75 C 10.554688 -45.820312 7.816406 -45.921875 5.046875 -46.046875 Z M 19.890625 -46.359375 C 19.890625 -46.617188 19.929688 -46.851562 20.015625 -47.0625 C 20.097656 -47.28125 20.222656 -47.460938 20.390625 -47.609375 C 20.566406 -47.765625 20.75 -47.882812 20.9375 -47.96875 C 21.132812 -48.050781 21.335938 -48.09375 21.546875 -48.09375 C 21.804688 -48.09375 22.03125 -48.050781 22.21875 -47.96875 C 22.414062 -47.882812 22.585938 -47.765625 22.734375 -47.609375 C 22.878906 -47.460938 22.992188 -47.28125 23.078125 -47.0625 C 23.171875 -46.851562 23.21875 -46.617188 23.21875 -46.359375 C 23.21875 -38.390625 23.085938 -30.695312 22.828125 -23.28125 C 22.578125 -15.863281 22.148438 -8.335938 21.546875 -0.703125 C 21.546875 -0.234375 21.460938 0.144531 21.296875 0.4375 C 21.128906 0.738281 20.925781 0.953125 20.6875 1.078125 C 20.457031 1.210938 20.191406 1.28125 19.890625 1.28125 C 19.585938 1.28125 19.304688 1.210938 19.046875 1.078125 C 18.796875 0.953125 18.609375 0.726562 18.484375 0.40625 C 18.359375 0.09375 18.296875 -0.273438 18.296875 -0.703125 C 18.847656 -8.078125 19.25 -15.535156 19.5 -23.078125 C 19.757812 -30.628906 19.890625 -38.390625 19.890625 -46.359375 Z M 19.890625 -46.359375 "/></g></g><g style="fill:#ffffff;fill-opacity:1;"><g transform="translate(224.566997, 190.272467)"><path style="stroke:none" d="M 3.515625 -14.96875 C 3.515625 -17.476562 3.929688 -19.90625 4.765625 -22.25 C 5.597656 -24.59375 6.738281 -26.679688 8.1875 -28.515625 C 9.632812 -30.347656 11.316406 -31.785156 13.234375 -32.828125 C 15.148438 -33.878906 17.195312 -34.40625 19.375 -34.40625 C 20.445312 -34.40625 21.71875 -34.234375 23.1875 -33.890625 C 24.65625 -33.554688 26.09375 -32.894531 27.5 -31.90625 C 27.707031 -32.84375 27.972656 -33.460938 28.296875 -33.765625 C 28.617188 -34.066406 28.953125 -34.21875 29.296875 -34.21875 C 29.722656 -34.21875 30.113281 -34.054688 30.46875 -33.734375 C 30.832031 -33.410156 30.972656 -32.867188 30.890625 -32.109375 C 30.722656 -30.742188 30.5 -29.015625 30.21875 -26.921875 C 29.9375 -24.835938 29.671875 -22.832031 29.421875 -20.90625 C 29.335938 -20.3125 29.207031 -19.425781 29.03125 -18.25 C 28.863281 -17.082031 28.722656 -15.921875 28.609375 -14.765625 C 28.503906 -13.617188 28.453125 -12.726562 28.453125 -12.09375 C 28.492188 -10.164062 28.675781 -8.488281 29 -7.0625 C 29.320312 -5.632812 29.757812 -4.523438 30.3125 -3.734375 C 30.863281 -2.953125 31.441406 -2.5625 32.046875 -2.5625 C 32.640625 -2.5625 33.191406 -2.757812 33.703125 -3.15625 C 34.210938 -3.5625 34.703125 -4.238281 35.171875 -5.1875 C 35.429688 -5.65625 35.707031 -6.046875 36 -6.359375 C 36.300781 -6.679688 36.644531 -6.800781 37.03125 -6.71875 C 37.414062 -6.632812 37.703125 -6.484375 37.890625 -6.265625 C 38.085938 -6.054688 38.207031 -5.789062 38.25 -5.46875 C 38.289062 -5.144531 38.242188 -4.75 38.109375 -4.28125 C 37.941406 -3.601562 37.582031 -2.878906 37.03125 -2.109375 C 36.476562 -1.335938 35.773438 -0.695312 34.921875 -0.1875 C 34.066406 0.320312 33.109375 0.578125 32.046875 0.578125 C 30.847656 0.578125 29.8125 0.179688 28.9375 -0.609375 C 28.0625 -1.398438 27.367188 -2.441406 26.859375 -3.734375 C 26.347656 -5.035156 26.007812 -6.476562 25.84375 -8.0625 C 24.6875 -5.675781 23.222656 -3.734375 21.453125 -2.234375 C 19.679688 -0.742188 17.664062 0 15.40625 0 C 12.851562 0 10.691406 -0.640625 8.921875 -1.921875 C 7.148438 -3.203125 5.804688 -4.96875 4.890625 -7.21875 C 3.972656 -9.476562 3.515625 -12.0625 3.515625 -14.96875 Z M 6.71875 -15.09375 C 6.71875 -12.625 7.078125 -10.472656 7.796875 -8.640625 C 8.523438 -6.804688 9.53125 -5.394531 10.8125 -4.40625 C 12.09375 -3.425781 13.582031 -2.9375 15.28125 -2.9375 C 16.863281 -2.9375 18.226562 -3.332031 19.375 -4.125 C 20.53125 -4.914062 21.488281 -5.914062 22.25 -7.125 C 23.019531 -8.34375 23.640625 -9.59375 24.109375 -10.875 C 24.535156 -12.019531 24.90625 -13.359375 25.21875 -14.890625 C 25.539062 -16.429688 25.804688 -18.050781 26.015625 -19.75 C 26.234375 -21.457031 26.414062 -23.097656 26.5625 -24.671875 C 26.71875 -26.253906 26.835938 -27.625 26.921875 -28.78125 C 25.640625 -29.800781 24.285156 -30.503906 22.859375 -30.890625 C 21.429688 -31.273438 20.207031 -31.46875 19.1875 -31.46875 C 17.351562 -31.46875 15.675781 -30.988281 14.15625 -30.03125 C 12.644531 -29.070312 11.320312 -27.78125 10.1875 -26.15625 C 9.0625 -24.539062 8.203125 -22.769531 7.609375 -20.84375 C 7.015625 -18.925781 6.71875 -17.007812 6.71875 -15.09375 Z M 6.71875 -15.09375 "/></g></g><g style="fill:#ffffff;fill-opacity:1;"><g transform="translate(263.832065, 190.272467)"><path style="stroke:none" d="M 9.34375 -50.71875 C 9.425781 -51.3125 9.601562 -51.753906 9.875 -52.046875 C 10.15625 -52.347656 10.53125 -52.5 11 -52.5 C 11.425781 -52.5 11.742188 -52.414062 11.953125 -52.25 C 12.171875 -52.082031 12.332031 -51.847656 12.4375 -51.546875 C 12.539062 -51.242188 12.570312 -50.878906 12.53125 -50.453125 C 12.40625 -48.878906 12.210938 -46.6875 11.953125 -43.875 C 11.703125 -41.0625 11.425781 -37.328125 11.125 -32.671875 C 10.832031 -28.023438 10.535156 -22.164062 10.234375 -15.09375 C 10.148438 -12.832031 10.0625 -10.59375 9.96875 -8.375 C 9.882812 -6.15625 9.800781 -3.75 9.71875 -1.15625 C 9.71875 -0.550781 9.554688 -0.101562 9.234375 0.1875 C 8.921875 0.488281 8.507812 0.640625 8 0.640625 C 7.488281 0.640625 7.101562 0.5 6.84375 0.21875 C 6.582031 -0.0507812 6.472656 -0.488281 6.515625 -1.09375 C 6.691406 -4.707031 6.875 -8.550781 7.0625 -12.625 C 7.257812 -16.695312 7.472656 -20.894531 7.703125 -25.21875 C 7.941406 -29.550781 8.195312 -33.867188 8.46875 -38.171875 C 8.75 -42.484375 9.039062 -46.664062 9.34375 -50.71875 Z M 9.34375 -50.71875 "/></g></g><g style="fill:#ffffff;fill-opacity:1;"><g transform="translate(281.993752, 190.272467)"><path style="stroke:none" d="M 8.890625 -50.65625 C 8.929688 -51.25 9.097656 -51.679688 9.390625 -51.953125 C 9.691406 -52.234375 10.078125 -52.375 10.546875 -52.375 C 11.109375 -52.375 11.492188 -52.203125 11.703125 -51.859375 C 11.910156 -51.523438 12.015625 -51.054688 12.015625 -50.453125 C 12.015625 -49.085938 11.863281 -46.976562 11.5625 -44.125 C 11.269531 -41.269531 10.953125 -37.773438 10.609375 -33.640625 C 10.273438 -29.503906 10.019531 -24.8125 9.84375 -19.5625 C 10.40625 -19.988281 11.257812 -20.660156 12.40625 -21.578125 C 13.5625 -22.492188 14.875 -23.523438 16.34375 -24.671875 C 17.8125 -25.828125 19.300781 -27.015625 20.8125 -28.234375 C 22.332031 -29.453125 23.738281 -30.59375 25.03125 -31.65625 C 26.332031 -32.71875 27.410156 -33.59375 28.265625 -34.28125 C 28.523438 -34.488281 28.75 -34.625 28.9375 -34.6875 C 29.132812 -34.757812 29.335938 -34.796875 29.546875 -34.796875 C 29.753906 -34.796875 29.953125 -34.75 30.140625 -34.65625 C 30.335938 -34.570312 30.507812 -34.46875 30.65625 -34.34375 C 30.8125 -34.21875 30.921875 -34.046875 30.984375 -33.828125 C 31.046875 -33.617188 31.078125 -33.40625 31.078125 -33.1875 C 31.078125 -32.9375 31.015625 -32.691406 30.890625 -32.453125 C 30.765625 -32.222656 30.570312 -32.019531 30.3125 -31.84375 C 29.632812 -31.289062 28.6875 -30.546875 27.46875 -29.609375 C 26.25 -28.671875 24.894531 -27.625 23.40625 -26.46875 C 21.914062 -25.320312 20.421875 -24.171875 18.921875 -23.015625 C 17.429688 -21.867188 16.054688 -20.816406 14.796875 -19.859375 C 13.546875 -18.898438 12.554688 -18.144531 11.828125 -17.59375 C 12.554688 -16.738281 13.492188 -15.539062 14.640625 -14 C 15.796875 -12.46875 16.925781 -10.957031 18.03125 -9.46875 C 18.882812 -8.394531 19.851562 -7.316406 20.9375 -6.234375 C 22.03125 -5.148438 23.128906 -4.234375 24.234375 -3.484375 C 25.347656 -2.734375 26.332031 -2.359375 27.1875 -2.359375 C 28.03125 -2.359375 28.847656 -2.753906 29.640625 -3.546875 C 30.429688 -4.335938 31.101562 -5.117188 31.65625 -5.890625 C 31.875 -6.222656 32.097656 -6.460938 32.328125 -6.609375 C 32.566406 -6.765625 32.8125 -6.84375 33.0625 -6.84375 C 33.28125 -6.84375 33.503906 -6.785156 33.734375 -6.671875 C 33.972656 -6.566406 34.164062 -6.410156 34.3125 -6.203125 C 34.457031 -5.992188 34.53125 -5.738281 34.53125 -5.4375 C 34.53125 -5.175781 34.457031 -4.90625 34.3125 -4.625 C 34.164062 -4.351562 33.960938 -4.046875 33.703125 -3.703125 C 33.234375 -3.109375 32.644531 -2.457031 31.9375 -1.75 C 31.238281 -1.050781 30.460938 -0.476562 29.609375 -0.03125 C 28.753906 0.414062 27.878906 0.640625 26.984375 0.640625 C 25.617188 0.640625 24.234375 0.203125 22.828125 -0.671875 C 21.421875 -1.546875 20.109375 -2.632812 18.890625 -3.9375 C 17.679688 -5.238281 16.566406 -6.503906 15.546875 -7.734375 C 14.390625 -9.273438 13.332031 -10.738281 12.375 -12.125 C 11.414062 -13.507812 10.507812 -14.691406 9.65625 -15.671875 C 9.613281 -13.410156 9.535156 -11.039062 9.421875 -8.5625 C 9.316406 -6.09375 9.222656 -3.664062 9.140625 -1.28125 C 9.140625 -0.59375 8.988281 -0.101562 8.6875 0.1875 C 8.394531 0.488281 7.972656 0.640625 7.421875 0.640625 C 6.953125 0.640625 6.585938 0.488281 6.328125 0.1875 C 6.078125 -0.101562 5.953125 -0.59375 5.953125 -1.28125 C 6.242188 -9.550781 6.625 -17.832031 7.09375 -26.125 C 7.5625 -34.414062 8.160156 -42.59375 8.890625 -50.65625 Z M 8.890625 -50.65625 "/></g></g><g style="fill:#ffffff;fill-opacity:1;"><g transform="translate(318.572921, 190.272467)"><path style="stroke:none" d=""/></g></g><g style="fill:#ffffff;fill-opacity:1;"><g transform="translate(344.02486, 190.272467)"><path style="stroke:none" d="M 9.140625 -41.765625 C 9.222656 -42.441406 9.394531 -42.914062 9.65625 -43.1875 C 9.914062 -43.46875 10.300781 -43.609375 10.8125 -43.609375 C 11.144531 -43.609375 11.425781 -43.546875 11.65625 -43.421875 C 11.894531 -43.296875 12.078125 -43.101562 12.203125 -42.84375 C 12.335938 -42.59375 12.382812 -42.253906 12.34375 -41.828125 C 11.957031 -38.628906 11.632812 -35.707031 11.375 -33.0625 C 11.125 -30.414062 10.945312 -27.910156 10.84375 -25.546875 C 10.738281 -23.179688 10.6875 -20.742188 10.6875 -18.234375 C 10.6875 -15.242188 10.832031 -12.566406 11.125 -10.203125 C 11.425781 -7.835938 11.832031 -5.960938 12.34375 -4.578125 C 12.851562 -3.191406 13.34375 -2.5 13.8125 -2.5 C 14.15625 -2.5 14.582031 -2.695312 15.09375 -3.09375 C 15.601562 -3.5 16.125 -4.007812 16.65625 -4.625 C 17.1875 -5.25 17.6875 -5.90625 18.15625 -6.59375 C 18.457031 -6.96875 18.703125 -7.226562 18.890625 -7.375 C 19.085938 -7.53125 19.289062 -7.609375 19.5 -7.609375 C 19.757812 -7.609375 20.003906 -7.53125 20.234375 -7.375 C 20.472656 -7.226562 20.664062 -7.046875 20.8125 -6.828125 C 20.96875 -6.617188 21.046875 -6.390625 21.046875 -6.140625 C 21.046875 -5.878906 21 -5.628906 20.90625 -5.390625 C 20.820312 -5.160156 20.632812 -4.859375 20.34375 -4.484375 C 19.613281 -3.492188 18.84375 -2.613281 18.03125 -1.84375 C 17.21875 -1.082031 16.4375 -0.5 15.6875 -0.09375 C 14.945312 0.3125 14.28125 0.515625 13.6875 0.515625 C 12.445312 0.515625 11.347656 -0.125 10.390625 -1.40625 C 9.429688 -2.6875 8.738281 -4.5 8.3125 -6.84375 C 8.007812 -8.550781 7.785156 -10.375 7.640625 -12.3125 C 7.492188 -14.25 7.421875 -16.285156 7.421875 -18.421875 C 7.421875 -21.015625 7.492188 -23.492188 7.640625 -25.859375 C 7.785156 -28.234375 7.988281 -30.695312 8.25 -33.25 C 8.507812 -35.8125 8.804688 -38.648438 9.140625 -41.765625 Z M 4.796875 -30.640625 C 4.328125 -30.585938 3.953125 -30.703125 3.671875 -30.984375 C 3.398438 -31.265625 3.265625 -31.617188 3.265625 -32.046875 C 3.265625 -32.472656 3.378906 -32.8125 3.609375 -33.0625 C 3.847656 -33.320312 4.222656 -33.472656 4.734375 -33.515625 C 6.054688 -33.640625 7.257812 -33.742188 8.34375 -33.828125 C 9.4375 -33.910156 10.546875 -33.960938 11.671875 -33.984375 C 12.796875 -34.003906 14.0625 -34.023438 15.46875 -34.046875 C 16.882812 -34.078125 18.53125 -34.09375 20.40625 -34.09375 C 20.914062 -34.09375 21.316406 -33.960938 21.609375 -33.703125 C 21.910156 -33.441406 22.082031 -33.101562 22.125 -32.6875 C 22.125 -32.21875 21.960938 -31.832031 21.640625 -31.53125 C 21.328125 -31.226562 20.914062 -31.078125 20.40625 -31.078125 C 19.125 -31.078125 17.925781 -31.066406 16.8125 -31.046875 C 15.707031 -31.023438 14.578125 -31.003906 13.421875 -30.984375 C 12.273438 -30.960938 11.019531 -30.921875 9.65625 -30.859375 C 8.289062 -30.796875 6.671875 -30.722656 4.796875 -30.640625 Z M 4.796875 -30.640625 "/></g></g><g style="fill:#ffffff;fill-opacity:1;"><g transform="translate(367.686197, 190.272467)"><path style="stroke:none" d="M 18.15625 -34.65625 C 19.144531 -34.65625 20.0625 -34.5625 20.90625 -34.375 C 21.757812 -34.1875 22.5625 -33.921875 23.3125 -33.578125 C 24.0625 -33.234375 24.710938 -32.828125 25.265625 -32.359375 C 27.179688 -30.785156 28.640625 -28.726562 29.640625 -26.1875 C 30.640625 -23.65625 31.140625 -21.046875 31.140625 -18.359375 C 31.140625 -16.015625 30.84375 -13.753906 30.25 -11.578125 C 29.65625 -9.398438 28.800781 -7.425781 27.6875 -5.65625 C 26.582031 -3.882812 25.226562 -2.488281 23.625 -1.46875 C 22.03125 -0.445312 20.253906 0.0625 18.296875 0.0625 C 16.328125 0.0625 14.46875 -0.375 12.71875 -1.25 C 10.976562 -2.125 9.425781 -3.335938 8.0625 -4.890625 C 6.695312 -6.453125 5.628906 -8.316406 4.859375 -10.484375 C 4.085938 -12.660156 3.703125 -15.03125 3.703125 -17.59375 C 3.703125 -19.675781 4.039062 -21.726562 4.71875 -23.75 C 5.40625 -25.78125 6.390625 -27.625 7.671875 -29.28125 C 8.953125 -30.945312 10.476562 -32.257812 12.25 -33.21875 C 14.019531 -34.175781 15.988281 -34.65625 18.15625 -34.65625 Z M 6.90625 -17.84375 C 6.90625 -14.988281 7.425781 -12.441406 8.46875 -10.203125 C 9.519531 -7.960938 10.894531 -6.191406 12.59375 -4.890625 C 14.300781 -3.585938 16.15625 -2.9375 18.15625 -2.9375 C 19.820312 -2.9375 21.257812 -3.394531 22.46875 -4.3125 C 23.6875 -5.226562 24.710938 -6.441406 25.546875 -7.953125 C 26.378906 -9.472656 27 -11.128906 27.40625 -12.921875 C 27.8125 -14.710938 28.015625 -16.457031 28.015625 -18.15625 C 28.015625 -20.976562 27.476562 -23.515625 26.40625 -25.765625 C 25.34375 -28.023438 23.957031 -29.710938 22.25 -30.828125 C 21.570312 -31.117188 20.878906 -31.316406 20.171875 -31.421875 C 19.472656 -31.535156 18.800781 -31.59375 18.15625 -31.59375 C 16.414062 -31.59375 14.835938 -31.175781 13.421875 -30.34375 C 12.015625 -29.507812 10.832031 -28.421875 9.875 -27.078125 C 8.914062 -25.734375 8.179688 -24.257812 7.671875 -22.65625 C 7.160156 -21.0625 6.90625 -19.457031 6.90625 -17.84375 Z M 6.90625 -17.84375 "/></g></g><g style="fill:#ffffff;fill-opacity:1;"><g transform="translate(402.282928, 190.272467)"><path style="stroke:none" d=""/></g></g><g style="fill:#ffffff;fill-opacity:1;"><g transform="translate(427.734855, 190.272467)"><path style="stroke:none" d="M 33.890625 -45.34375 C 34.109375 -45.175781 34.269531 -44.984375 34.375 -44.765625 C 34.476562 -44.554688 34.53125 -44.34375 34.53125 -44.125 C 34.53125 -43.875 34.457031 -43.628906 34.3125 -43.390625 C 34.164062 -43.160156 33.984375 -42.96875 33.765625 -42.8125 C 33.554688 -42.664062 33.300781 -42.59375 33 -42.59375 C 32.738281 -42.59375 32.445312 -42.6875 32.125 -42.875 C 31.8125 -43.070312 31.359375 -43.34375 30.765625 -43.6875 C 29.222656 -44.625 27.664062 -45.316406 26.09375 -45.765625 C 24.519531 -46.210938 22.75 -46.4375 20.78125 -46.4375 C 18.3125 -46.4375 16.234375 -46.03125 14.546875 -45.21875 C 12.859375 -44.40625 11.609375 -43.367188 10.796875 -42.109375 C 9.992188 -40.847656 9.59375 -39.492188 9.59375 -38.046875 C 9.59375 -36.640625 10.007812 -35.347656 10.84375 -34.171875 C 11.675781 -33.003906 12.960938 -31.875 14.703125 -30.78125 C 16.453125 -29.695312 18.648438 -28.519531 21.296875 -27.25 C 24.578125 -25.664062 27.195312 -24.117188 29.15625 -22.609375 C 31.125 -21.097656 32.53125 -19.457031 33.375 -17.6875 C 34.226562 -15.914062 34.65625 -13.859375 34.65625 -11.515625 C 34.65625 -9.722656 34.300781 -8.046875 33.59375 -6.484375 C 32.894531 -4.929688 31.90625 -3.578125 30.625 -2.421875 C 29.351562 -1.273438 27.851562 -0.382812 26.125 0.25 C 24.394531 0.894531 22.507812 1.21875 20.46875 1.21875 C 18.800781 1.21875 17.101562 1.003906 15.375 0.578125 C 13.65625 0.148438 12.035156 -0.410156 10.515625 -1.109375 C 9.003906 -1.816406 7.695312 -2.617188 6.59375 -3.515625 C 5.738281 -4.242188 5.3125 -4.882812 5.3125 -5.4375 C 5.351562 -5.738281 5.4375 -5.992188 5.5625 -6.203125 C 5.6875 -6.410156 5.851562 -6.578125 6.0625 -6.703125 C 6.28125 -6.835938 6.519531 -6.90625 6.78125 -6.90625 C 7.03125 -6.90625 7.378906 -6.773438 7.828125 -6.515625 C 8.273438 -6.265625 8.820312 -5.925781 9.46875 -5.5 C 10.695312 -4.6875 12.25 -3.875 14.125 -3.0625 C 16.007812 -2.257812 18.101562 -1.859375 20.40625 -1.859375 C 22.53125 -1.859375 24.398438 -2.296875 26.015625 -3.171875 C 27.640625 -4.046875 28.921875 -5.207031 29.859375 -6.65625 C 30.796875 -8.101562 31.265625 -9.722656 31.265625 -11.515625 C 31.265625 -13.347656 30.859375 -15 30.046875 -16.46875 C 29.242188 -17.9375 27.976562 -19.320312 26.25 -20.625 C 24.519531 -21.925781 22.269531 -23.195312 19.5 -24.4375 C 17.457031 -25.375 15.601562 -26.3125 13.9375 -27.25 C 12.28125 -28.1875 10.875 -29.1875 9.71875 -30.25 C 8.570312 -31.3125 7.707031 -32.484375 7.125 -33.765625 C 6.550781 -35.046875 6.265625 -36.472656 6.265625 -38.046875 C 6.265625 -40.304688 6.90625 -42.289062 8.1875 -44 C 9.46875 -45.707031 11.222656 -47.050781 13.453125 -48.03125 C 15.691406 -49.007812 18.285156 -49.5 21.234375 -49.5 C 23.785156 -49.5 26.203125 -49.101562 28.484375 -48.3125 C 30.765625 -47.53125 32.566406 -46.539062 33.890625 -45.34375 Z M 33.890625 -45.34375 "/></g></g><g style="fill:#ffffff;fill-opacity:1;"><g transform="translate(466.871979, 190.272467)"><path style="stroke:none" d="M 16.046875 0.703125 C 14.347656 0.703125 12.828125 0.210938 11.484375 -0.765625 C 10.140625 -1.742188 9.007812 -3.085938 8.09375 -4.796875 C 7.175781 -6.503906 6.472656 -8.460938 5.984375 -10.671875 C 5.492188 -12.890625 5.25 -15.257812 5.25 -17.78125 C 5.25 -20.082031 5.414062 -22.507812 5.75 -25.0625 C 6.09375 -27.625 6.519531 -30.351562 7.03125 -33.25 C 7.113281 -33.675781 7.296875 -34.003906 7.578125 -34.234375 C 7.859375 -34.472656 8.164062 -34.59375 8.5 -34.59375 C 9.0625 -34.59375 9.488281 -34.441406 9.78125 -34.140625 C 10.082031 -33.847656 10.234375 -33.425781 10.234375 -32.875 C 10.191406 -32.445312 10.03125 -31.613281 9.75 -30.375 C 9.476562 -29.132812 9.191406 -27.46875 8.890625 -25.375 C 8.585938 -23.289062 8.4375 -20.78125 8.4375 -17.84375 C 8.476562 -15.070312 8.804688 -12.503906 9.421875 -10.140625 C 10.046875 -7.773438 10.929688 -5.875 12.078125 -4.4375 C 13.234375 -3.007812 14.601562 -2.296875 16.1875 -2.296875 C 17.375 -2.296875 18.570312 -2.796875 19.78125 -3.796875 C 21 -4.804688 22.160156 -6.128906 23.265625 -7.765625 C 24.378906 -9.410156 25.332031 -11.171875 26.125 -13.046875 C 26.914062 -14.921875 27.457031 -16.734375 27.75 -18.484375 C 28.007812 -21.171875 28.191406 -23.597656 28.296875 -25.765625 C 28.398438 -27.941406 28.453125 -30.160156 28.453125 -32.421875 C 28.453125 -33.109375 28.601562 -33.648438 28.90625 -34.046875 C 29.207031 -34.453125 29.59375 -34.65625 30.0625 -34.65625 C 30.351562 -34.65625 30.625 -34.582031 30.875 -34.4375 C 31.132812 -34.289062 31.335938 -34.085938 31.484375 -33.828125 C 31.640625 -33.578125 31.71875 -33.238281 31.71875 -32.8125 C 31.757812 -32.207031 31.769531 -31.351562 31.75 -30.25 C 31.726562 -29.144531 31.6875 -27.941406 31.625 -26.640625 C 31.5625 -25.335938 31.472656 -24.054688 31.359375 -22.796875 C 31.253906 -21.535156 31.117188 -20.4375 30.953125 -19.5 C 30.691406 -16.988281 30.519531 -14.113281 30.4375 -10.875 C 30.351562 -7.632812 30.207031 -4.328125 30 -0.953125 C 29.957031 -0.441406 29.796875 -0.0507812 29.515625 0.21875 C 29.234375 0.5 28.835938 0.640625 28.328125 0.640625 C 27.734375 0.640625 27.335938 0.488281 27.140625 0.1875 C 26.953125 -0.101562 26.859375 -0.550781 26.859375 -1.15625 C 26.859375 -1.875 26.890625 -2.722656 26.953125 -3.703125 C 27.015625 -4.691406 27.085938 -5.707031 27.171875 -6.75 C 27.265625 -7.789062 27.3125 -8.757812 27.3125 -9.65625 C 26.414062 -7.945312 25.519531 -6.453125 24.625 -5.171875 C 23.726562 -3.898438 22.832031 -2.828125 21.9375 -1.953125 C 21.039062 -1.078125 20.101562 -0.414062 19.125 0.03125 C 18.144531 0.476562 17.117188 0.703125 16.046875 0.703125 Z M 16.046875 0.703125 "/></g></g><g style="fill:#ffffff;fill-opacity:1;"><g transform="translate(504.026689, 190.272467)"><path style="stroke:none" d="M 6.59375 17.96875 C 6.125 17.96875 5.75 17.835938 5.46875 17.578125 C 5.1875 17.328125 5.066406 16.96875 5.109375 16.5 C 5.328125 13.644531 5.507812 10.875 5.65625 8.1875 C 5.8125 5.5 5.953125 2.84375 6.078125 0.21875 C 6.203125 -2.394531 6.328125 -5.023438 6.453125 -7.671875 C 6.585938 -10.316406 6.707031 -13.003906 6.8125 -15.734375 C 6.914062 -18.460938 7.03125 -21.296875 7.15625 -24.234375 C 7.289062 -27.179688 7.441406 -30.253906 7.609375 -33.453125 C 7.609375 -33.960938 7.789062 -34.34375 8.15625 -34.59375 C 8.519531 -34.851562 8.914062 -34.984375 9.34375 -34.984375 C 9.8125 -34.984375 10.171875 -34.84375 10.421875 -34.5625 C 10.679688 -34.289062 10.8125 -33.941406 10.8125 -33.515625 C 10.726562 -32.234375 10.640625 -30.707031 10.546875 -28.9375 C 10.460938 -27.164062 10.378906 -25.382812 10.296875 -23.59375 C 12.085938 -27.351562 14.046875 -30.125 16.171875 -31.90625 C 18.304688 -33.695312 20.566406 -34.59375 22.953125 -34.59375 C 24.578125 -34.59375 26.0625 -34.132812 27.40625 -33.21875 C 28.75 -32.300781 29.910156 -31.097656 30.890625 -29.609375 C 31.867188 -28.117188 32.625 -26.457031 33.15625 -24.625 C 33.6875 -22.789062 33.953125 -20.957031 33.953125 -19.125 C 33.953125 -16.351562 33.535156 -13.769531 32.703125 -11.375 C 31.878906 -8.988281 30.738281 -6.898438 29.28125 -5.109375 C 27.832031 -3.328125 26.148438 -1.929688 24.234375 -0.921875 C 22.316406 0.078125 20.269531 0.578125 18.09375 0.578125 C 16.5625 0.578125 15.015625 0.269531 13.453125 -0.34375 C 11.898438 -0.96875 10.550781 -1.769531 9.40625 -2.75 C 9.269531 0.238281 9.09375 3.351562 8.875 6.59375 C 8.664062 9.832031 8.457031 13.132812 8.25 16.5 C 8.207031 16.925781 8.054688 17.273438 7.796875 17.546875 C 7.546875 17.828125 7.144531 17.96875 6.59375 17.96875 Z M 18.15625 -2.359375 C 19.65625 -2.359375 21.140625 -2.742188 22.609375 -3.515625 C 24.078125 -4.285156 25.414062 -5.394531 26.625 -6.84375 C 27.84375 -8.289062 28.828125 -10.035156 29.578125 -12.078125 C 30.328125 -14.128906 30.703125 -16.390625 30.703125 -18.859375 C 30.703125 -20.484375 30.5 -22.050781 30.09375 -23.5625 C 29.6875 -25.082031 29.097656 -26.445312 28.328125 -27.65625 C 27.566406 -28.875 26.703125 -29.832031 25.734375 -30.53125 C 24.773438 -31.238281 23.722656 -31.59375 22.578125 -31.59375 C 21.085938 -31.59375 19.710938 -31.144531 18.453125 -30.25 C 17.191406 -29.351562 16.050781 -28.203125 15.03125 -26.796875 C 14.007812 -25.390625 13.082031 -23.875 12.25 -22.25 C 11.414062 -20.632812 10.679688 -19.082031 10.046875 -17.59375 C 9.953125 -15.625 9.875 -13.703125 9.8125 -11.828125 C 9.75 -9.953125 9.675781 -8.015625 9.59375 -6.015625 C 10.738281 -4.859375 12.109375 -3.957031 13.703125 -3.3125 C 15.304688 -2.675781 16.789062 -2.359375 18.15625 -2.359375 Z M 18.15625 -2.359375 "/></g></g><g style="fill:#ffffff;fill-opacity:1;"><g transform="translate(541.565114, 190.272467)"><path style="stroke:none" d="M 17.65625 -0.125 C 15.601562 -0.125 13.722656 -0.5625 12.015625 -1.4375 C 10.316406 -2.3125 8.835938 -3.523438 7.578125 -5.078125 C 6.316406 -6.640625 5.34375 -8.410156 4.65625 -10.390625 C 3.976562 -12.367188 3.640625 -14.445312 3.640625 -16.625 C 3.640625 -18.84375 4.085938 -21.015625 4.984375 -23.140625 C 5.878906 -25.273438 7.09375 -27.207031 8.625 -28.9375 C 10.164062 -30.664062 11.925781 -32.039062 13.90625 -33.0625 C 15.894531 -34.082031 17.953125 -34.59375 20.078125 -34.59375 C 21.660156 -34.59375 23.078125 -34.226562 24.328125 -33.5 C 25.585938 -32.78125 26.578125 -31.800781 27.296875 -30.5625 C 28.023438 -29.332031 28.390625 -27.945312 28.390625 -26.40625 C 28.390625 -24.707031 27.992188 -23.175781 27.203125 -21.8125 C 26.421875 -20.445312 25.195312 -19.253906 23.53125 -18.234375 C 21.570312 -16.953125 19.207031 -16 16.4375 -15.375 C 13.664062 -14.757812 10.488281 -14.390625 6.90625 -14.265625 C 7.207031 -12.253906 7.859375 -10.382812 8.859375 -8.65625 C 9.859375 -6.9375 11.125 -5.5625 12.65625 -4.53125 C 14.195312 -3.507812 15.882812 -3 17.71875 -3 C 19.550781 -3 21.265625 -3.46875 22.859375 -4.40625 C 24.460938 -5.34375 25.988281 -6.707031 27.4375 -8.5 C 27.644531 -8.757812 27.84375 -8.953125 28.03125 -9.078125 C 28.226562 -9.203125 28.4375 -9.265625 28.65625 -9.265625 C 28.90625 -9.265625 29.144531 -9.191406 29.375 -9.046875 C 29.613281 -8.898438 29.796875 -8.71875 29.921875 -8.5 C 30.054688 -8.289062 30.125 -8.054688 30.125 -7.796875 C 30.164062 -7.585938 30.117188 -7.351562 29.984375 -7.09375 C 29.859375 -6.84375 29.671875 -6.546875 29.421875 -6.203125 C 28.015625 -4.410156 26.265625 -2.945312 24.171875 -1.8125 C 22.085938 -0.6875 19.914062 -0.125 17.65625 -0.125 Z M 6.78125 -17.140625 C 9.550781 -17.179688 12.179688 -17.445312 14.671875 -17.9375 C 17.171875 -18.425781 19.226562 -19.140625 20.84375 -20.078125 C 22.164062 -20.765625 23.234375 -21.671875 24.046875 -22.796875 C 24.859375 -23.929688 25.265625 -25.179688 25.265625 -26.546875 C 25.265625 -27.441406 25.03125 -28.289062 24.5625 -29.09375 C 24.09375 -29.90625 23.460938 -30.554688 22.671875 -31.046875 C 21.878906 -31.535156 20.972656 -31.78125 19.953125 -31.78125 C 18.285156 -31.78125 16.6875 -31.375 15.15625 -30.5625 C 13.625 -29.757812 12.238281 -28.664062 11 -27.28125 C 9.757812 -25.894531 8.765625 -24.316406 8.015625 -22.546875 C 7.273438 -20.773438 6.863281 -18.972656 6.78125 -17.140625 Z M 6.78125 -17.140625 "/></g></g><g style="fill:#ffffff;fill-opacity:1;"><g transform="translate(574.946817, 190.272467)"><path style="stroke:none" d="M 7.359375 -33 C 7.359375 -33.550781 7.503906 -33.960938 7.796875 -34.234375 C 8.097656 -34.515625 8.484375 -34.65625 8.953125 -34.65625 C 9.460938 -34.65625 9.878906 -34.515625 10.203125 -34.234375 C 10.523438 -33.960938 10.6875 -33.550781 10.6875 -33 C 10.6875 -32.445312 10.660156 -31.742188 10.609375 -30.890625 C 10.566406 -30.035156 10.535156 -29.210938 10.515625 -28.421875 C 10.492188 -27.640625 10.441406 -26.992188 10.359375 -26.484375 C 11.941406 -29.335938 13.539062 -31.398438 15.15625 -32.671875 C 16.78125 -33.953125 18.59375 -34.59375 20.59375 -34.59375 C 21.738281 -34.59375 22.929688 -34.359375 24.171875 -33.890625 C 25.410156 -33.421875 26.5 -32.785156 27.4375 -31.984375 C 27.738281 -31.765625 27.953125 -31.523438 28.078125 -31.265625 C 28.203125 -31.015625 28.242188 -30.738281 28.203125 -30.4375 C 28.203125 -30.007812 28.070312 -29.65625 27.8125 -29.375 C 27.5625 -29.101562 27.242188 -28.96875 26.859375 -28.96875 C 26.609375 -28.96875 26.363281 -29.019531 26.125 -29.125 C 25.882812 -29.238281 25.617188 -29.421875 25.328125 -29.671875 C 24.640625 -30.265625 23.898438 -30.742188 23.109375 -31.109375 C 22.328125 -31.472656 21.425781 -31.65625 20.40625 -31.65625 C 18.351562 -31.65625 16.503906 -30.640625 14.859375 -28.609375 C 13.222656 -26.585938 11.679688 -23.722656 10.234375 -20.015625 C 10.148438 -18.523438 10.085938 -16.90625 10.046875 -15.15625 C 10.003906 -13.40625 9.957031 -11.65625 9.90625 -9.90625 C 9.863281 -8.164062 9.832031 -6.503906 9.8125 -4.921875 C 9.789062 -3.347656 9.78125 -1.960938 9.78125 -0.765625 C 9.78125 -0.378906 9.707031 -0.0703125 9.5625 0.15625 C 9.414062 0.394531 9.222656 0.566406 8.984375 0.671875 C 8.753906 0.773438 8.46875 0.828125 8.125 0.828125 C 7.613281 0.828125 7.21875 0.625 6.9375 0.21875 C 6.65625 -0.1875 6.453125 -0.75 6.328125 -1.46875 C 6.203125 -2.195312 6.140625 -3.070312 6.140625 -4.09375 C 6.140625 -4.945312 6.171875 -6.046875 6.234375 -7.390625 C 6.296875 -8.734375 6.378906 -10.128906 6.484375 -11.578125 C 6.597656 -13.023438 6.71875 -14.300781 6.84375 -15.40625 Z M 7.359375 -33 "/></g></g><g style="fill:#ffffff;fill-opacity:1;"><g transform="translate(603.915978, 190.272467)"><path style="stroke:none" d="M 9.203125 -0.640625 C 9.117188 -0.253906 8.9375 0.03125 8.65625 0.21875 C 8.382812 0.414062 8.015625 0.515625 7.546875 0.515625 C 7.035156 0.515625 6.648438 0.34375 6.390625 0 C 6.140625 -0.34375 6.035156 -0.832031 6.078125 -1.46875 C 6.671875 -6.539062 7.113281 -11.101562 7.40625 -15.15625 C 7.707031 -19.207031 7.910156 -22.988281 8.015625 -26.5 C 8.128906 -30.019531 8.1875 -33.472656 8.1875 -36.859375 C 8.1875 -40.253906 8.144531 -43.804688 8.0625 -47.515625 C 8.019531 -48.066406 8.164062 -48.503906 8.5 -48.828125 C 8.84375 -49.148438 9.25 -49.3125 9.71875 -49.3125 C 10.101562 -49.3125 10.421875 -49.222656 10.671875 -49.046875 C 10.929688 -48.878906 11.210938 -48.539062 11.515625 -48.03125 C 13.171875 -45.175781 14.773438 -42.375 16.328125 -39.625 C 17.890625 -36.875 19.4375 -34.132812 20.96875 -31.40625 C 22.507812 -28.675781 24.066406 -25.914062 25.640625 -23.125 C 27.222656 -20.332031 28.820312 -17.441406 30.4375 -14.453125 C 32.226562 -17.015625 33.988281 -19.644531 35.71875 -22.34375 C 37.445312 -25.050781 39.128906 -27.800781 40.765625 -30.59375 C 42.410156 -33.394531 43.988281 -36.191406 45.5 -38.984375 C 47.007812 -41.773438 48.425781 -44.515625 49.75 -47.203125 C 49.96875 -47.671875 50.222656 -48.007812 50.515625 -48.21875 C 50.816406 -48.4375 51.265625 -48.546875 51.859375 -48.546875 C 52.378906 -48.546875 52.773438 -48.363281 53.046875 -48 C 53.328125 -47.632812 53.46875 -47.175781 53.46875 -46.625 C 53.550781 -43.039062 53.59375 -39.773438 53.59375 -36.828125 C 53.59375 -33.890625 53.570312 -30.992188 53.53125 -28.140625 C 53.488281 -25.285156 53.425781 -22.191406 53.34375 -18.859375 C 53.25 -16.003906 53.128906 -13.070312 52.984375 -10.0625 C 52.835938 -7.0625 52.65625 -3.941406 52.4375 -0.703125 C 52.394531 -0.148438 52.222656 0.25 51.921875 0.5 C 51.628906 0.757812 51.226562 0.890625 50.71875 0.890625 C 50.164062 0.890625 49.75 0.757812 49.46875 0.5 C 49.1875 0.25 49.066406 -0.148438 49.109375 -0.703125 L 49.75 -11.390625 C 49.882812 -13.390625 49.984375 -15.410156 50.046875 -17.453125 C 50.109375 -19.503906 50.171875 -21.710938 50.234375 -24.078125 C 50.296875 -26.441406 50.335938 -29.050781 50.359375 -31.90625 C 50.378906 -34.769531 50.410156 -38.015625 50.453125 -41.640625 C 48.796875 -38.390625 47.050781 -35.15625 45.21875 -31.9375 C 43.382812 -28.71875 41.390625 -25.414062 39.234375 -22.03125 C 37.078125 -18.644531 34.703125 -15.117188 32.109375 -11.453125 C 31.804688 -11.023438 31.503906 -10.710938 31.203125 -10.515625 C 30.910156 -10.328125 30.59375 -10.234375 30.25 -10.234375 C 29.945312 -10.234375 29.65625 -10.335938 29.375 -10.546875 C 29.101562 -10.765625 28.816406 -11.085938 28.515625 -11.515625 C 27.328125 -13.679688 25.992188 -16.019531 24.515625 -18.53125 C 23.046875 -21.050781 21.546875 -23.664062 20.015625 -26.375 C 18.484375 -29.082031 16.976562 -31.78125 15.5 -34.46875 C 14.03125 -37.15625 12.632812 -39.734375 11.3125 -42.203125 C 11.3125 -37.734375 11.289062 -33.609375 11.25 -29.828125 C 11.207031 -26.054688 11.113281 -22.53125 10.96875 -19.25 C 10.820312 -15.96875 10.597656 -12.8125 10.296875 -9.78125 C 9.992188 -6.757812 9.628906 -3.710938 9.203125 -0.640625 Z M 9.203125 -0.640625 "/></g></g><g style="fill:#ffffff;fill-opacity:1;"><g transform="translate(663.96466, 190.272467)"><path style="stroke:none" d="M 7.734375 -32.6875 C 7.734375 -33.0625 7.796875 -33.363281 7.921875 -33.59375 C 8.054688 -33.832031 8.25 -34.015625 8.5 -34.140625 C 8.757812 -34.273438 9.039062 -34.34375 9.34375 -34.34375 C 9.851562 -34.34375 10.242188 -34.210938 10.515625 -33.953125 C 10.796875 -33.703125 10.9375 -33.28125 10.9375 -32.6875 C 10.9375 -29.394531 10.894531 -26.476562 10.8125 -23.9375 C 10.726562 -21.40625 10.628906 -18.988281 10.515625 -16.6875 C 10.410156 -14.382812 10.316406 -11.960938 10.234375 -9.421875 C 10.148438 -6.890625 10.085938 -4.003906 10.046875 -0.765625 C 10.046875 -0.171875 9.90625 0.257812 9.625 0.53125 C 9.34375 0.8125 8.96875 0.953125 8.5 0.953125 C 8.03125 0.953125 7.675781 0.84375 7.4375 0.625 C 7.207031 0.414062 7.050781 0.15625 6.96875 -0.15625 C 6.882812 -0.476562 6.84375 -0.8125 6.84375 -1.15625 C 6.84375 -1.625 6.875 -2.675781 6.9375 -4.3125 C 7 -5.957031 7.070312 -7.960938 7.15625 -10.328125 C 7.25 -12.691406 7.347656 -15.207031 7.453125 -17.875 C 7.554688 -20.539062 7.628906 -23.171875 7.671875 -25.765625 C 7.710938 -28.367188 7.734375 -30.675781 7.734375 -32.6875 Z M 6.84375 -45.859375 C 6.84375 -46.328125 6.9375 -46.816406 7.125 -47.328125 C 7.320312 -47.835938 7.597656 -48.257812 7.953125 -48.59375 C 8.316406 -48.9375 8.753906 -49.109375 9.265625 -49.109375 C 10.035156 -49.109375 10.613281 -48.945312 11 -48.625 C 11.382812 -48.3125 11.640625 -47.910156 11.765625 -47.421875 C 11.890625 -46.929688 11.953125 -46.492188 11.953125 -46.109375 C 11.953125 -45.296875 11.695312 -44.566406 11.1875 -43.921875 C 10.675781 -43.285156 10.035156 -42.96875 9.265625 -42.96875 C 8.585938 -42.96875 8.015625 -43.265625 7.546875 -43.859375 C 7.078125 -44.460938 6.84375 -45.128906 6.84375 -45.859375 Z M 6.84375 -45.859375 "/></g></g><g style="fill:#ffffff;fill-opacity:1;"><g transform="translate(681.294988, 190.272467)"><path style="stroke:none" d="M 7.546875 -34.015625 C 7.628906 -34.441406 7.832031 -34.757812 8.15625 -34.96875 C 8.476562 -35.1875 8.847656 -35.296875 9.265625 -35.296875 C 9.742188 -35.296875 10.117188 -35.144531 10.390625 -34.84375 C 10.671875 -34.550781 10.789062 -34.148438 10.75 -33.640625 C 10.707031 -32.867188 10.640625 -32.003906 10.546875 -31.046875 C 10.460938 -30.085938 10.378906 -29.085938 10.296875 -28.046875 C 10.210938 -27.003906 10.148438 -25.96875 10.109375 -24.9375 C 11.128906 -26.988281 12.300781 -28.769531 13.625 -30.28125 C 14.945312 -31.789062 16.351562 -32.953125 17.84375 -33.765625 C 19.332031 -34.578125 20.867188 -34.984375 22.453125 -34.984375 C 26.023438 -34.984375 28.6875 -33.773438 30.4375 -31.359375 C 32.1875 -28.953125 33.0625 -25.445312 33.0625 -20.84375 C 33.0625 -18.5 32.921875 -16.21875 32.640625 -14 C 32.367188 -11.789062 32.09375 -9.640625 31.8125 -7.546875 C 31.539062 -5.453125 31.40625 -3.425781 31.40625 -1.46875 C 31.40625 -0.789062 31.253906 -0.269531 30.953125 0.09375 C 30.648438 0.457031 30.242188 0.640625 29.734375 0.640625 C 29.265625 0.640625 28.890625 0.488281 28.609375 0.1875 C 28.335938 -0.101562 28.203125 -0.613281 28.203125 -1.34375 C 28.203125 -3.519531 28.335938 -5.691406 28.609375 -7.859375 C 28.890625 -10.035156 29.164062 -12.210938 29.4375 -14.390625 C 29.71875 -16.566406 29.859375 -18.71875 29.859375 -20.84375 C 29.859375 -23.488281 29.5625 -25.617188 28.96875 -27.234375 C 28.375 -28.859375 27.507812 -30.054688 26.375 -30.828125 C 25.25 -31.597656 23.875 -31.984375 22.25 -31.984375 C 20.882812 -31.984375 19.5625 -31.554688 18.28125 -30.703125 C 17.007812 -29.847656 15.816406 -28.71875 14.703125 -27.3125 C 13.597656 -25.90625 12.628906 -24.335938 11.796875 -22.609375 C 10.960938 -20.878906 10.289062 -19.140625 9.78125 -17.390625 C 9.78125 -14.410156 9.691406 -11.46875 9.515625 -8.5625 C 9.347656 -5.664062 9.203125 -3.085938 9.078125 -0.828125 C 9.035156 -0.316406 8.875 0.0625 8.59375 0.3125 C 8.320312 0.570312 7.929688 0.703125 7.421875 0.703125 C 7.035156 0.703125 6.710938 0.59375 6.453125 0.375 C 6.203125 0.164062 6.03125 -0.148438 5.9375 -0.578125 C 5.851562 -1.003906 5.789062 -1.472656 5.75 -1.984375 C 5.707031 -3.472656 5.757812 -5.378906 5.90625 -7.703125 C 6.0625 -10.023438 6.3125 -12.59375 6.65625 -15.40625 C 6.695312 -17.925781 6.738281 -20.082031 6.78125 -21.875 C 6.820312 -23.664062 6.875 -25.234375 6.9375 -26.578125 C 7 -27.921875 7.082031 -29.175781 7.1875 -30.34375 C 7.300781 -31.519531 7.421875 -32.742188 7.546875 -34.015625 Z M 7.546875 -34.015625 "/></g></g><g style="fill:#ffffff;fill-opacity:1;"><g transform="translate(719.472879, 190.272467)"><path style="stroke:none" d="M 29.03125 -51.15625 C 29.070312 -51.71875 29.242188 -52.132812 29.546875 -52.40625 C 29.847656 -52.6875 30.210938 -52.828125 30.640625 -52.828125 C 31.148438 -52.828125 31.550781 -52.6875 31.84375 -52.40625 C 32.144531 -52.132812 32.273438 -51.695312 32.234375 -51.09375 C 31.679688 -43.800781 31.203125 -35.96875 30.796875 -27.59375 C 30.390625 -19.21875 29.992188 -10.234375 29.609375 -0.640625 C 29.609375 -0.128906 29.445312 0.238281 29.125 0.46875 C 28.8125 0.707031 28.421875 0.828125 27.953125 0.828125 C 27.523438 0.828125 27.160156 0.6875 26.859375 0.40625 C 26.554688 0.132812 26.429688 -0.253906 26.484375 -0.765625 C 26.523438 -1.617188 26.578125 -2.597656 26.640625 -3.703125 C 26.703125 -4.816406 26.753906 -5.988281 26.796875 -7.21875 C 26.835938 -8.457031 26.898438 -9.695312 26.984375 -10.9375 C 26.085938 -8.675781 24.957031 -6.679688 23.59375 -4.953125 C 22.226562 -3.222656 20.753906 -1.867188 19.171875 -0.890625 C 17.597656 0.0859375 16.023438 0.578125 14.453125 0.578125 C 12.828125 0.578125 11.351562 0.171875 10.03125 -0.640625 C 8.71875 -1.453125 7.582031 -2.582031 6.625 -4.03125 C 5.664062 -5.476562 4.914062 -7.117188 4.375 -8.953125 C 3.84375 -10.785156 3.578125 -12.703125 3.578125 -14.703125 C 3.578125 -17.304688 4.003906 -19.800781 4.859375 -22.1875 C 5.710938 -24.570312 6.882812 -26.671875 8.375 -28.484375 C 9.863281 -30.296875 11.597656 -31.734375 13.578125 -32.796875 C 15.566406 -33.867188 17.691406 -34.40625 19.953125 -34.40625 C 21.316406 -34.40625 22.679688 -34.160156 24.046875 -33.671875 C 25.410156 -33.179688 26.644531 -32.488281 27.75 -31.59375 C 27.882812 -33.550781 28.015625 -35.648438 28.140625 -37.890625 C 28.265625 -40.128906 28.398438 -42.390625 28.546875 -44.671875 C 28.703125 -46.953125 28.863281 -49.113281 29.03125 -51.15625 Z M 6.84375 -14.453125 C 6.84375 -12.359375 7.191406 -10.382812 7.890625 -8.53125 C 8.597656 -6.675781 9.554688 -5.179688 10.765625 -4.046875 C 11.984375 -2.921875 13.273438 -2.359375 14.640625 -2.359375 C 15.835938 -2.359375 17.03125 -2.753906 18.21875 -3.546875 C 19.414062 -4.335938 20.546875 -5.40625 21.609375 -6.75 C 22.679688 -8.09375 23.628906 -9.582031 24.453125 -11.21875 C 25.285156 -12.863281 25.9375 -14.539062 26.40625 -16.25 C 26.457031 -16.5 26.546875 -16.796875 26.671875 -17.140625 C 26.796875 -17.484375 26.96875 -17.738281 27.1875 -17.90625 L 27.5625 -28.328125 C 26.582031 -29.304688 25.367188 -30.0625 23.921875 -30.59375 C 22.472656 -31.132812 21.085938 -31.40625 19.765625 -31.40625 C 17.460938 -31.40625 15.335938 -30.675781 13.390625 -29.21875 C 11.453125 -27.769531 9.875 -25.753906 8.65625 -23.171875 C 7.445312 -20.597656 6.84375 -17.691406 6.84375 -14.453125 Z M 6.84375 -14.453125 "/></g></g><g style="fill:#ffffff;fill-opacity:1;"><g transform="translate(756.052048, 190.272467)"><path style="stroke:none" d="M 9.59375 -12.796875 C 8.863281 -12.796875 8.378906 -13.0625 8.140625 -13.59375 C 7.910156 -14.125 7.816406 -14.753906 7.859375 -15.484375 C 7.910156 -15.859375 7.957031 -16.695312 8 -18 C 8.039062 -19.300781 8.09375 -20.929688 8.15625 -22.890625 C 8.21875 -24.859375 8.289062 -26.984375 8.375 -29.265625 C 8.457031 -31.546875 8.53125 -33.835938 8.59375 -36.140625 C 8.664062 -38.441406 8.734375 -40.625 8.796875 -42.6875 C 8.859375 -44.757812 8.910156 -46.539062 8.953125 -48.03125 C 8.953125 -48.625 9.097656 -49.054688 9.390625 -49.328125 C 9.691406 -49.609375 10.097656 -49.75 10.609375 -49.75 C 11.128906 -49.75 11.535156 -49.609375 11.828125 -49.328125 C 12.128906 -49.054688 12.257812 -48.625 12.21875 -48.03125 C 12.082031 -44.914062 11.972656 -42.269531 11.890625 -40.09375 C 11.804688 -37.925781 11.734375 -35.957031 11.671875 -34.1875 C 11.609375 -32.414062 11.554688 -30.625 11.515625 -28.8125 C 11.472656 -27 11.425781 -24.960938 11.375 -22.703125 C 11.332031 -20.441406 11.269531 -17.710938 11.1875 -14.515625 C 11.144531 -14.003906 10.992188 -13.585938 10.734375 -13.265625 C 10.484375 -12.953125 10.101562 -12.796875 9.59375 -12.796875 Z M 9.265625 0.828125 C 8.585938 0.828125 8.015625 0.539062 7.546875 -0.03125 C 7.078125 -0.601562 6.84375 -1.273438 6.84375 -2.046875 C 6.84375 -2.816406 7.078125 -3.46875 7.546875 -4 C 8.015625 -4.53125 8.65625 -4.796875 9.46875 -4.796875 C 10.144531 -4.835938 10.695312 -4.601562 11.125 -4.09375 C 11.550781 -3.582031 11.765625 -2.960938 11.765625 -2.234375 C 11.765625 -1.335938 11.539062 -0.601562 11.09375 -0.03125 C 10.644531 0.539062 10.035156 0.828125 9.265625 0.828125 Z M 9.265625 0.828125 "/></g></g></g></svg>