<svg xmlns="http://www.w3.org/2000/svg" xmlns:xlink="http://www.w3.org/1999/xlink" width="780" zoomAndPan="magnify" viewBox="0 0 585 225" height="300" preserveAspectRatio="xMidYMid meet" version="1.2"><defs><clipPath id="05a4aafce2"><path d="M 266 7 L 376 7 L 376 104 L 266 104 Z M 266 7 "/></clipPath><clipPath id="1a00365a34"><path d="M 281.507812 -7.796875 L 400.65625 55.675781 L 374.558594 104.660156 L 255.414062 41.183594 Z M 281.507812 -7.796875 "/></clipPath><clipPath id="038ee88a42"><path d="M 255.523438 40.976562 L 374.667969 104.453125 L 400.765625 55.46875 L 281.617188 -8.003906 Z M 255.523438 40.976562 "/></clipPath><clipPath id="40dbccf735"><path d="M 255.523438 40.976562 L 374.667969 104.453125 L 400.765625 55.46875 L 281.617188 -8.003906 Z M 255.523438 40.976562 "/></clipPath></defs><g id="55392de8d5"><g clip-rule="nonzero" clip-path="url(#05a4aafce2)"><g clip-rule="nonzero" clip-path="url(#1a00365a34)"><g clip-rule="nonzero" clip-path="url(#038ee88a42)"><g clip-rule="nonzero" clip-path="url(#40dbccf735)"><path style=" stroke:none;fill-rule:nonzero;fill:#ffffff;fill-opacity:1;" d="M 268.042969 19.628906 C 267.851562 18.496094 268.023438 17.101562 268.882812 16.988281 C 282.757812 14.65625 296.5625 11.601562 310.339844 7.957031 C 312.695312 7.382812 314.714844 14.0625 312.359375 14.640625 C 302.433594 17.246094 292.5625 19.535156 282.609375 21.554688 C 297.121094 22.308594 311.40625 26.257812 324.214844 33.195312 C 340.308594 41.65625 353.757812 54.652344 363.085938 70.261719 C 368.679688 79.417969 372.761719 89.488281 375.308594 99.878906 C 375.597656 100.835938 376.023438 103.234375 374.703125 103.792969 C 373.34375 104.210938 372.191406 101.882812 372.039062 100.886719 C 367.925781 83.824219 359.183594 68.183594 346.527344 55.835938 C 334.621094 44 319.601562 35.65625 303.4375 31.390625 C 296.960938 29.65625 290.417969 28.691406 283.769531 28.351562 C 288.898438 31.539062 293.566406 35.171875 297.625 39.734375 C 298.71875 40.890625 299.292969 42.796875 299.066406 44.507812 C 298.890625 45.902344 297.667969 46.277344 296.753906 45.21875 C 289.074219 36.554688 278.558594 31.292969 268.359375 26.089844 C 266.980469 25.46875 266.417969 23.109375 266.414062 21.621094 C 266.21875 20.488281 266.84375 19.105469 268.042969 19.628906 Z M 268.042969 19.628906 "/></g></g></g></g><g style="fill:#ffffff;fill-opacity:1;"><g transform="translate(18.280133, 166.212701)"><path style="stroke:none" d="M 4.5625 -41.609375 C 4.132812 -41.609375 3.785156 -41.734375 3.515625 -41.984375 C 3.253906 -42.234375 3.125 -42.585938 3.125 -43.046875 C 3.125 -43.472656 3.253906 -43.8125 3.515625 -44.0625 C 3.785156 -44.3125 4.132812 -44.4375 4.5625 -44.4375 C 5.945312 -44.394531 7.503906 -44.34375 9.234375 -44.28125 C 10.972656 -44.226562 12.707031 -44.191406 14.4375 -44.171875 C 16.175781 -44.148438 17.738281 -44.140625 19.125 -44.140625 C 21.976562 -44.140625 24.8125 -44.164062 27.625 -44.21875 C 30.4375 -44.28125 33.226562 -44.367188 36 -44.484375 C 36.5 -44.484375 36.875 -44.359375 37.125 -44.109375 C 37.375 -43.859375 37.5 -43.523438 37.5 -43.109375 C 37.5 -42.722656 37.375 -42.382812 37.125 -42.09375 C 36.875 -41.800781 36.5 -41.65625 36 -41.65625 C 33.226562 -41.539062 30.453125 -41.441406 27.671875 -41.359375 C 24.898438 -41.285156 22.109375 -41.25 19.296875 -41.25 C 16.867188 -41.25 14.429688 -41.273438 11.984375 -41.328125 C 9.546875 -41.390625 7.070312 -41.484375 4.5625 -41.609375 Z M 17.96875 -41.890625 C 17.96875 -42.117188 18.003906 -42.328125 18.078125 -42.515625 C 18.160156 -42.710938 18.273438 -42.878906 18.421875 -43.015625 C 18.578125 -43.148438 18.742188 -43.253906 18.921875 -43.328125 C 19.097656 -43.410156 19.28125 -43.453125 19.46875 -43.453125 C 19.695312 -43.453125 19.898438 -43.410156 20.078125 -43.328125 C 20.253906 -43.253906 20.410156 -43.148438 20.546875 -43.015625 C 20.679688 -42.878906 20.785156 -42.710938 20.859375 -42.515625 C 20.929688 -42.328125 20.96875 -42.117188 20.96875 -41.890625 C 20.96875 -34.691406 20.851562 -27.738281 20.625 -21.03125 C 20.394531 -14.332031 20.007812 -7.535156 19.46875 -0.640625 C 19.46875 -0.210938 19.390625 0.132812 19.234375 0.40625 C 19.085938 0.675781 18.90625 0.867188 18.6875 0.984375 C 18.476562 1.097656 18.238281 1.15625 17.96875 1.15625 C 17.695312 1.15625 17.445312 1.097656 17.21875 0.984375 C 16.988281 0.867188 16.816406 0.664062 16.703125 0.375 C 16.585938 0.0820312 16.53125 -0.253906 16.53125 -0.640625 C 17.03125 -7.296875 17.394531 -14.035156 17.625 -20.859375 C 17.851562 -27.679688 17.96875 -34.691406 17.96875 -41.890625 Z M 17.96875 -41.890625 "/></g></g><g style="fill:#ffffff;fill-opacity:1;"><g transform="translate(49.306228, 166.212701)"><path style="stroke:none" d="M 3.171875 -13.515625 C 3.171875 -15.796875 3.546875 -17.992188 4.296875 -20.109375 C 5.054688 -22.222656 6.085938 -24.109375 7.390625 -25.765625 C 8.703125 -27.421875 10.222656 -28.722656 11.953125 -29.671875 C 13.691406 -30.617188 15.539062 -31.09375 17.5 -31.09375 C 18.46875 -31.09375 19.613281 -30.9375 20.9375 -30.625 C 22.269531 -30.3125 23.570312 -29.710938 24.84375 -28.828125 C 25.039062 -29.679688 25.28125 -30.238281 25.5625 -30.5 C 25.851562 -30.769531 26.15625 -30.90625 26.46875 -30.90625 C 26.851562 -30.90625 27.207031 -30.757812 27.53125 -30.46875 C 27.863281 -30.1875 27.988281 -29.695312 27.90625 -29 C 27.75 -27.769531 27.546875 -26.210938 27.296875 -24.328125 C 27.046875 -22.441406 26.804688 -20.628906 26.578125 -18.890625 C 26.503906 -18.347656 26.390625 -17.546875 26.234375 -16.484375 C 26.078125 -15.429688 25.953125 -14.382812 25.859375 -13.34375 C 25.765625 -12.300781 25.71875 -11.492188 25.71875 -10.921875 C 25.75 -9.191406 25.910156 -7.679688 26.203125 -6.390625 C 26.492188 -5.097656 26.890625 -4.09375 27.390625 -3.375 C 27.890625 -2.664062 28.410156 -2.3125 28.953125 -2.3125 C 29.484375 -2.3125 29.976562 -2.492188 30.4375 -2.859375 C 30.90625 -3.222656 31.351562 -3.832031 31.78125 -4.6875 C 32.007812 -5.101562 32.257812 -5.457031 32.53125 -5.75 C 32.800781 -6.039062 33.109375 -6.144531 33.453125 -6.0625 C 33.796875 -5.988281 34.054688 -5.851562 34.234375 -5.65625 C 34.410156 -5.46875 34.515625 -5.226562 34.546875 -4.9375 C 34.585938 -4.644531 34.550781 -4.289062 34.4375 -3.875 C 34.28125 -3.257812 33.953125 -2.601562 33.453125 -1.90625 C 32.953125 -1.207031 32.316406 -0.628906 31.546875 -0.171875 C 30.773438 0.285156 29.910156 0.515625 28.953125 0.515625 C 27.867188 0.515625 26.929688 0.160156 26.140625 -0.546875 C 25.359375 -1.265625 24.734375 -2.207031 24.265625 -3.375 C 23.804688 -4.550781 23.5 -5.851562 23.34375 -7.28125 C 22.300781 -5.125 20.976562 -3.367188 19.375 -2.015625 C 17.78125 -0.671875 15.960938 0 13.921875 0 C 11.609375 0 9.648438 -0.578125 8.046875 -1.734375 C 6.453125 -2.890625 5.238281 -4.488281 4.40625 -6.53125 C 3.582031 -8.570312 3.171875 -10.898438 3.171875 -13.515625 Z M 6.0625 -13.640625 C 6.0625 -11.398438 6.390625 -9.453125 7.046875 -7.796875 C 7.703125 -6.140625 8.609375 -4.867188 9.765625 -3.984375 C 10.921875 -3.097656 12.269531 -2.65625 13.8125 -2.65625 C 15.238281 -2.65625 16.46875 -3.007812 17.5 -3.71875 C 18.539062 -4.4375 19.40625 -5.34375 20.09375 -6.4375 C 20.789062 -7.539062 21.351562 -8.671875 21.78125 -9.828125 C 22.164062 -10.867188 22.503906 -12.082031 22.796875 -13.46875 C 23.085938 -14.851562 23.328125 -16.316406 23.515625 -17.859375 C 23.710938 -19.398438 23.875 -20.878906 24 -22.296875 C 24.132812 -23.722656 24.242188 -24.957031 24.328125 -26 C 23.171875 -26.925781 21.945312 -27.5625 20.65625 -27.90625 C 19.363281 -28.25 18.253906 -28.421875 17.328125 -28.421875 C 15.671875 -28.421875 14.160156 -27.988281 12.796875 -27.125 C 11.429688 -26.257812 10.238281 -25.09375 9.21875 -23.625 C 8.195312 -22.164062 7.414062 -20.566406 6.875 -18.828125 C 6.332031 -17.097656 6.0625 -15.367188 6.0625 -13.640625 Z M 6.0625 -13.640625 "/></g></g><g style="fill:#ffffff;fill-opacity:1;"><g transform="translate(84.781342, 166.212701)"><path style="stroke:none" d="M 8.4375 -45.828125 C 8.507812 -46.359375 8.671875 -46.757812 8.921875 -47.03125 C 9.171875 -47.300781 9.507812 -47.4375 9.9375 -47.4375 C 10.320312 -47.4375 10.609375 -47.359375 10.796875 -47.203125 C 10.992188 -47.046875 11.140625 -46.832031 11.234375 -46.5625 C 11.335938 -46.300781 11.367188 -45.976562 11.328125 -45.59375 C 11.210938 -44.164062 11.035156 -42.179688 10.796875 -39.640625 C 10.566406 -37.097656 10.316406 -33.726562 10.046875 -29.53125 C 9.785156 -25.332031 9.519531 -20.035156 9.25 -13.640625 C 9.164062 -11.597656 9.082031 -9.570312 9 -7.5625 C 8.925781 -5.5625 8.851562 -3.390625 8.78125 -1.046875 C 8.78125 -0.503906 8.632812 -0.0976562 8.34375 0.171875 C 8.0625 0.441406 7.6875 0.578125 7.21875 0.578125 C 6.757812 0.578125 6.410156 0.453125 6.171875 0.203125 C 5.941406 -0.046875 5.847656 -0.441406 5.890625 -0.984375 C 6.046875 -4.253906 6.207031 -7.726562 6.375 -11.40625 C 6.550781 -15.09375 6.742188 -18.890625 6.953125 -22.796875 C 7.171875 -26.703125 7.40625 -30.597656 7.65625 -34.484375 C 7.90625 -38.378906 8.164062 -42.160156 8.4375 -45.828125 Z M 8.4375 -45.828125 "/></g></g><g style="fill:#ffffff;fill-opacity:1;"><g transform="translate(101.190021, 166.212701)"><path style="stroke:none" d="M 8.03125 -45.765625 C 8.070312 -46.304688 8.222656 -46.703125 8.484375 -46.953125 C 8.753906 -47.203125 9.101562 -47.328125 9.53125 -47.328125 C 10.03125 -47.328125 10.375 -47.171875 10.5625 -46.859375 C 10.757812 -46.546875 10.859375 -46.125 10.859375 -45.59375 C 10.859375 -44.351562 10.722656 -42.441406 10.453125 -39.859375 C 10.179688 -37.285156 9.890625 -34.128906 9.578125 -30.390625 C 9.273438 -26.648438 9.046875 -22.414062 8.890625 -17.6875 C 9.398438 -18.070312 10.171875 -18.675781 11.203125 -19.5 C 12.242188 -20.332031 13.425781 -21.265625 14.75 -22.296875 C 16.082031 -23.335938 17.429688 -24.40625 18.796875 -25.5 C 20.171875 -26.601562 21.445312 -27.632812 22.625 -28.59375 C 23.800781 -29.5625 24.773438 -30.351562 25.546875 -30.96875 C 25.773438 -31.164062 25.972656 -31.289062 26.140625 -31.34375 C 26.316406 -31.40625 26.5 -31.4375 26.6875 -31.4375 C 26.882812 -31.4375 27.066406 -31.394531 27.234375 -31.3125 C 27.410156 -31.238281 27.566406 -31.144531 27.703125 -31.03125 C 27.835938 -30.914062 27.929688 -30.757812 27.984375 -30.5625 C 28.046875 -30.375 28.078125 -30.179688 28.078125 -29.984375 C 28.078125 -29.753906 28.019531 -29.53125 27.90625 -29.3125 C 27.789062 -29.101562 27.617188 -28.925781 27.390625 -28.78125 C 26.773438 -28.28125 25.914062 -27.601562 24.8125 -26.75 C 23.71875 -25.90625 22.492188 -24.960938 21.140625 -23.921875 C 19.796875 -22.878906 18.445312 -21.835938 17.09375 -20.796875 C 15.75 -19.753906 14.507812 -18.800781 13.375 -17.9375 C 12.238281 -17.070312 11.34375 -16.390625 10.6875 -15.890625 C 11.34375 -15.117188 12.191406 -14.039062 13.234375 -12.65625 C 14.273438 -11.269531 15.296875 -9.898438 16.296875 -8.546875 C 17.066406 -7.585938 17.941406 -6.613281 18.921875 -5.625 C 19.898438 -4.644531 20.890625 -3.816406 21.890625 -3.140625 C 22.898438 -2.472656 23.789062 -2.140625 24.5625 -2.140625 C 25.332031 -2.140625 26.070312 -2.492188 26.78125 -3.203125 C 27.488281 -3.921875 28.097656 -4.625 28.609375 -5.3125 C 28.796875 -5.625 28.992188 -5.847656 29.203125 -5.984375 C 29.421875 -6.117188 29.644531 -6.1875 29.875 -6.1875 C 30.0625 -6.1875 30.257812 -6.132812 30.46875 -6.03125 C 30.6875 -5.9375 30.863281 -5.789062 31 -5.59375 C 31.132812 -5.40625 31.203125 -5.175781 31.203125 -4.90625 C 31.203125 -4.675781 31.132812 -4.4375 31 -4.1875 C 30.863281 -3.9375 30.679688 -3.65625 30.453125 -3.34375 C 30.023438 -2.8125 29.492188 -2.226562 28.859375 -1.59375 C 28.222656 -0.957031 27.519531 -0.4375 26.75 -0.03125 C 25.976562 0.375 25.191406 0.578125 24.390625 0.578125 C 23.148438 0.578125 21.894531 0.179688 20.625 -0.609375 C 19.351562 -1.398438 18.164062 -2.378906 17.0625 -3.546875 C 15.96875 -4.722656 14.960938 -5.867188 14.046875 -6.984375 C 13.003906 -8.378906 12.046875 -9.703125 11.171875 -10.953125 C 10.304688 -12.203125 9.488281 -13.269531 8.71875 -14.15625 C 8.6875 -12.113281 8.617188 -9.972656 8.515625 -7.734375 C 8.421875 -5.503906 8.335938 -3.3125 8.265625 -1.15625 C 8.265625 -0.539062 8.128906 -0.0976562 7.859375 0.171875 C 7.585938 0.441406 7.203125 0.578125 6.703125 0.578125 C 6.273438 0.578125 5.945312 0.441406 5.71875 0.171875 C 5.488281 -0.0976562 5.375 -0.539062 5.375 -1.15625 C 5.644531 -8.625 5.988281 -16.101562 6.40625 -23.59375 C 6.832031 -31.09375 7.375 -38.484375 8.03125 -45.765625 Z M 8.03125 -45.765625 "/></g></g><g style="fill:#ffffff;fill-opacity:1;"><g transform="translate(134.238486, 166.212701)"><path style="stroke:none" d=""/></g></g><g style="fill:#ffffff;fill-opacity:1;"><g transform="translate(157.233746, 166.212701)"><path style="stroke:none" d="M 8.265625 -37.734375 C 8.335938 -38.347656 8.488281 -38.78125 8.71875 -39.03125 C 8.957031 -39.28125 9.304688 -39.40625 9.765625 -39.40625 C 10.078125 -39.40625 10.335938 -39.347656 10.546875 -39.234375 C 10.753906 -39.117188 10.914062 -38.941406 11.03125 -38.703125 C 11.144531 -38.472656 11.1875 -38.164062 11.15625 -37.78125 C 10.800781 -34.894531 10.507812 -32.257812 10.28125 -29.875 C 10.050781 -27.488281 9.890625 -25.222656 9.796875 -23.078125 C 9.703125 -20.941406 9.65625 -18.738281 9.65625 -16.46875 C 9.65625 -13.769531 9.785156 -11.351562 10.046875 -9.21875 C 10.316406 -7.082031 10.679688 -5.382812 11.140625 -4.125 C 11.609375 -2.875 12.054688 -2.25 12.484375 -2.25 C 12.785156 -2.25 13.164062 -2.429688 13.625 -2.796875 C 14.09375 -3.160156 14.566406 -3.625 15.046875 -4.1875 C 15.535156 -4.75 15.988281 -5.335938 16.40625 -5.953125 C 16.675781 -6.296875 16.894531 -6.535156 17.0625 -6.671875 C 17.238281 -6.804688 17.425781 -6.875 17.625 -6.875 C 17.851562 -6.875 18.070312 -6.804688 18.28125 -6.671875 C 18.5 -6.535156 18.675781 -6.367188 18.8125 -6.171875 C 18.945312 -5.984375 19.015625 -5.773438 19.015625 -5.546875 C 19.015625 -5.316406 18.972656 -5.09375 18.890625 -4.875 C 18.816406 -4.664062 18.644531 -4.390625 18.375 -4.046875 C 17.71875 -3.160156 17.023438 -2.367188 16.296875 -1.671875 C 15.566406 -0.984375 14.863281 -0.453125 14.1875 -0.078125 C 13.507812 0.285156 12.898438 0.46875 12.359375 0.46875 C 11.242188 0.46875 10.253906 -0.109375 9.390625 -1.265625 C 8.523438 -2.421875 7.898438 -4.0625 7.515625 -6.1875 C 7.242188 -7.726562 7.039062 -9.375 6.90625 -11.125 C 6.769531 -12.875 6.703125 -14.710938 6.703125 -16.640625 C 6.703125 -18.992188 6.769531 -21.238281 6.90625 -23.375 C 7.039062 -25.507812 7.222656 -27.734375 7.453125 -30.046875 C 7.679688 -32.359375 7.953125 -34.921875 8.265625 -37.734375 Z M 4.328125 -27.671875 C 3.910156 -27.640625 3.578125 -27.75 3.328125 -28 C 3.078125 -28.25 2.953125 -28.566406 2.953125 -28.953125 C 2.953125 -29.335938 3.054688 -29.644531 3.265625 -29.875 C 3.472656 -30.101562 3.8125 -30.238281 4.28125 -30.28125 C 5.46875 -30.394531 6.550781 -30.488281 7.53125 -30.5625 C 8.519531 -30.644531 9.523438 -30.691406 10.546875 -30.703125 C 11.566406 -30.722656 12.710938 -30.742188 13.984375 -30.765625 C 15.253906 -30.785156 16.738281 -30.796875 18.4375 -30.796875 C 18.894531 -30.796875 19.257812 -30.679688 19.53125 -30.453125 C 19.800781 -30.222656 19.957031 -29.914062 20 -29.53125 C 20 -29.101562 19.851562 -28.753906 19.5625 -28.484375 C 19.269531 -28.210938 18.894531 -28.078125 18.4375 -28.078125 C 17.28125 -28.078125 16.195312 -28.066406 15.1875 -28.046875 C 14.1875 -28.035156 13.164062 -28.019531 12.125 -28 C 11.09375 -27.976562 9.957031 -27.9375 8.71875 -27.875 C 7.488281 -27.820312 6.023438 -27.753906 4.328125 -27.671875 Z M 4.328125 -27.671875 "/></g></g><g style="fill:#ffffff;fill-opacity:1;"><g transform="translate(178.611237, 166.212701)"><path style="stroke:none" d="M 16.40625 -31.3125 C 17.289062 -31.3125 18.117188 -31.222656 18.890625 -31.046875 C 19.660156 -30.878906 20.382812 -30.640625 21.0625 -30.328125 C 21.738281 -30.023438 22.328125 -29.660156 22.828125 -29.234375 C 24.554688 -27.804688 25.875 -25.945312 26.78125 -23.65625 C 27.6875 -21.363281 28.140625 -19.003906 28.140625 -16.578125 C 28.140625 -14.460938 27.867188 -12.421875 27.328125 -10.453125 C 26.785156 -8.492188 26.015625 -6.710938 25.015625 -5.109375 C 24.015625 -3.515625 22.789062 -2.253906 21.34375 -1.328125 C 19.90625 -0.398438 18.300781 0.0625 16.53125 0.0625 C 14.757812 0.0625 13.082031 -0.332031 11.5 -1.125 C 9.914062 -1.914062 8.507812 -3.015625 7.28125 -4.421875 C 6.050781 -5.828125 5.085938 -7.507812 4.390625 -9.46875 C 3.691406 -11.4375 3.34375 -13.578125 3.34375 -15.890625 C 3.34375 -17.773438 3.648438 -19.628906 4.265625 -21.453125 C 4.890625 -23.285156 5.78125 -24.953125 6.9375 -26.453125 C 8.09375 -27.960938 9.46875 -29.148438 11.0625 -30.015625 C 12.664062 -30.878906 14.445312 -31.3125 16.40625 -31.3125 Z M 6.234375 -16.125 C 6.234375 -13.539062 6.707031 -11.238281 7.65625 -9.21875 C 8.601562 -7.195312 9.84375 -5.597656 11.375 -4.421875 C 12.914062 -3.242188 14.59375 -2.65625 16.40625 -2.65625 C 17.90625 -2.65625 19.203125 -3.066406 20.296875 -3.890625 C 21.398438 -4.722656 22.328125 -5.820312 23.078125 -7.1875 C 23.828125 -8.5625 24.382812 -10.054688 24.75 -11.671875 C 25.125 -13.285156 25.3125 -14.863281 25.3125 -16.40625 C 25.3125 -18.945312 24.828125 -21.238281 23.859375 -23.28125 C 22.898438 -25.320312 21.648438 -26.84375 20.109375 -27.84375 C 19.492188 -28.113281 18.867188 -28.296875 18.234375 -28.390625 C 17.597656 -28.492188 16.988281 -28.546875 16.40625 -28.546875 C 14.832031 -28.546875 13.410156 -28.171875 12.140625 -27.421875 C 10.867188 -26.671875 9.796875 -25.6875 8.921875 -24.46875 C 8.054688 -23.257812 7.390625 -21.929688 6.921875 -20.484375 C 6.460938 -19.035156 6.234375 -17.582031 6.234375 -16.125 Z M 6.234375 -16.125 "/></g></g><g style="fill:#ffffff;fill-opacity:1;"><g transform="translate(209.868613, 166.212701)"><path style="stroke:none" d=""/></g></g><g style="fill:#ffffff;fill-opacity:1;"><g transform="translate(232.863862, 166.212701)"><path style="stroke:none" d="M 30.625 -40.96875 C 30.8125 -40.8125 30.953125 -40.632812 31.046875 -40.4375 C 31.148438 -40.25 31.203125 -40.0625 31.203125 -39.875 C 31.203125 -39.632812 31.132812 -39.410156 31 -39.203125 C 30.863281 -38.992188 30.695312 -38.820312 30.5 -38.6875 C 30.3125 -38.550781 30.082031 -38.484375 29.8125 -38.484375 C 29.582031 -38.484375 29.320312 -38.566406 29.03125 -38.734375 C 28.75 -38.910156 28.335938 -39.15625 27.796875 -39.46875 C 26.410156 -40.3125 25.003906 -40.9375 23.578125 -41.34375 C 22.148438 -41.75 20.550781 -41.953125 18.78125 -41.953125 C 16.539062 -41.953125 14.660156 -41.582031 13.140625 -40.84375 C 11.617188 -40.113281 10.492188 -39.179688 9.765625 -38.046875 C 9.035156 -36.910156 8.671875 -35.6875 8.671875 -34.375 C 8.671875 -33.101562 9.046875 -31.9375 9.796875 -30.875 C 10.546875 -29.820312 11.707031 -28.800781 13.28125 -27.8125 C 14.863281 -26.832031 16.847656 -25.765625 19.234375 -24.609375 C 22.203125 -23.191406 24.570312 -21.796875 26.34375 -20.421875 C 28.113281 -19.054688 29.382812 -17.570312 30.15625 -15.96875 C 30.925781 -14.375 31.3125 -12.519531 31.3125 -10.40625 C 31.3125 -8.78125 30.992188 -7.265625 30.359375 -5.859375 C 29.722656 -4.453125 28.828125 -3.226562 27.671875 -2.1875 C 26.515625 -1.15625 25.15625 -0.351562 23.59375 0.21875 C 22.039062 0.800781 20.335938 1.09375 18.484375 1.09375 C 16.984375 1.09375 15.453125 0.898438 13.890625 0.515625 C 12.335938 0.128906 10.875 -0.378906 9.5 -1.015625 C 8.132812 -1.648438 6.953125 -2.367188 5.953125 -3.171875 C 5.179688 -3.828125 4.796875 -4.40625 4.796875 -4.90625 C 4.835938 -5.175781 4.914062 -5.40625 5.03125 -5.59375 C 5.144531 -5.789062 5.296875 -5.945312 5.484375 -6.0625 C 5.679688 -6.175781 5.894531 -6.234375 6.125 -6.234375 C 6.351562 -6.234375 6.671875 -6.117188 7.078125 -5.890625 C 7.484375 -5.660156 7.972656 -5.351562 8.546875 -4.96875 C 9.671875 -4.238281 11.078125 -3.503906 12.765625 -2.765625 C 14.460938 -2.035156 16.351562 -1.671875 18.4375 -1.671875 C 20.363281 -1.671875 22.054688 -2.066406 23.515625 -2.859375 C 24.984375 -3.648438 26.140625 -4.695312 26.984375 -6 C 27.828125 -7.3125 28.25 -8.78125 28.25 -10.40625 C 28.25 -12.0625 27.882812 -13.550781 27.15625 -14.875 C 26.425781 -16.207031 25.28125 -17.457031 23.71875 -18.625 C 22.15625 -19.800781 20.125 -20.953125 17.625 -22.078125 C 15.769531 -22.921875 14.09375 -23.765625 12.59375 -24.609375 C 11.09375 -25.460938 9.820312 -26.367188 8.78125 -27.328125 C 7.738281 -28.296875 6.957031 -29.351562 6.4375 -30.5 C 5.914062 -31.65625 5.65625 -32.945312 5.65625 -34.375 C 5.65625 -36.414062 6.234375 -38.207031 7.390625 -39.75 C 8.546875 -41.289062 10.132812 -42.503906 12.15625 -43.390625 C 14.1875 -44.273438 16.53125 -44.71875 19.1875 -44.71875 C 21.5 -44.71875 23.679688 -44.359375 25.734375 -43.640625 C 27.796875 -42.929688 29.425781 -42.039062 30.625 -40.96875 Z M 30.625 -40.96875 "/></g></g><g style="fill:#ffffff;fill-opacity:1;"><g transform="translate(268.223382, 166.212701)"><path style="stroke:none" d="M 14.5 0.640625 C 12.957031 0.640625 11.578125 0.195312 10.359375 -0.6875 C 9.148438 -1.570312 8.128906 -2.785156 7.296875 -4.328125 C 6.472656 -5.867188 5.835938 -7.640625 5.390625 -9.640625 C 4.953125 -11.648438 4.734375 -13.789062 4.734375 -16.0625 C 4.734375 -18.144531 4.882812 -20.335938 5.1875 -22.640625 C 5.5 -24.953125 5.890625 -27.421875 6.359375 -30.046875 C 6.429688 -30.429688 6.59375 -30.726562 6.84375 -30.9375 C 7.09375 -31.15625 7.375 -31.265625 7.6875 -31.265625 C 8.1875 -31.265625 8.570312 -31.128906 8.84375 -30.859375 C 9.113281 -30.585938 9.25 -30.203125 9.25 -29.703125 C 9.207031 -29.316406 9.0625 -28.5625 8.8125 -27.4375 C 8.5625 -26.320312 8.300781 -24.820312 8.03125 -22.9375 C 7.757812 -21.050781 7.625 -18.78125 7.625 -16.125 C 7.664062 -13.613281 7.960938 -11.289062 8.515625 -9.15625 C 9.078125 -7.019531 9.878906 -5.304688 10.921875 -4.015625 C 11.960938 -2.722656 13.195312 -2.078125 14.625 -2.078125 C 15.695312 -2.078125 16.78125 -2.53125 17.875 -3.4375 C 18.976562 -4.34375 20.03125 -5.535156 21.03125 -7.015625 C 22.03125 -8.503906 22.882812 -10.09375 23.59375 -11.78125 C 24.3125 -13.476562 24.804688 -15.117188 25.078125 -16.703125 C 25.304688 -19.128906 25.46875 -21.320312 25.5625 -23.28125 C 25.664062 -25.25 25.71875 -27.253906 25.71875 -29.296875 C 25.71875 -29.910156 25.847656 -30.398438 26.109375 -30.765625 C 26.378906 -31.128906 26.726562 -31.3125 27.15625 -31.3125 C 27.425781 -31.3125 27.675781 -31.242188 27.90625 -31.109375 C 28.132812 -30.972656 28.316406 -30.789062 28.453125 -30.5625 C 28.585938 -30.332031 28.65625 -30.023438 28.65625 -29.640625 C 28.695312 -29.097656 28.707031 -28.328125 28.6875 -27.328125 C 28.664062 -26.328125 28.625 -25.238281 28.5625 -24.0625 C 28.507812 -22.882812 28.4375 -21.726562 28.34375 -20.59375 C 28.25 -19.457031 28.125 -18.46875 27.96875 -17.625 C 27.738281 -15.351562 27.582031 -12.753906 27.5 -9.828125 C 27.425781 -6.898438 27.289062 -3.910156 27.09375 -0.859375 C 27.0625 -0.398438 26.921875 -0.046875 26.671875 0.203125 C 26.421875 0.453125 26.0625 0.578125 25.59375 0.578125 C 25.050781 0.578125 24.691406 0.441406 24.515625 0.171875 C 24.347656 -0.0976562 24.265625 -0.503906 24.265625 -1.046875 C 24.265625 -1.691406 24.289062 -2.457031 24.34375 -3.34375 C 24.40625 -4.238281 24.472656 -5.15625 24.546875 -6.09375 C 24.628906 -7.039062 24.671875 -7.914062 24.671875 -8.71875 C 23.859375 -7.175781 23.046875 -5.828125 22.234375 -4.671875 C 21.429688 -3.523438 20.625 -2.554688 19.8125 -1.765625 C 19.007812 -0.972656 18.164062 -0.375 17.28125 0.03125 C 16.394531 0.4375 15.46875 0.640625 14.5 0.640625 Z M 14.5 0.640625 "/></g></g><g style="fill:#ffffff;fill-opacity:1;"><g transform="translate(301.791835, 166.212701)"><path style="stroke:none" d="M 5.953125 16.234375 C 5.523438 16.234375 5.1875 16.117188 4.9375 15.890625 C 4.6875 15.660156 4.582031 15.332031 4.625 14.90625 C 4.8125 12.320312 4.972656 9.816406 5.109375 7.390625 C 5.242188 4.960938 5.367188 2.566406 5.484375 0.203125 C 5.597656 -2.160156 5.710938 -4.535156 5.828125 -6.921875 C 5.953125 -9.316406 6.0625 -11.742188 6.15625 -14.203125 C 6.25 -16.671875 6.351562 -19.234375 6.46875 -21.890625 C 6.582031 -24.554688 6.71875 -27.332031 6.875 -30.21875 C 6.875 -30.675781 7.035156 -31.019531 7.359375 -31.25 C 7.691406 -31.488281 8.050781 -31.609375 8.4375 -31.609375 C 8.863281 -31.609375 9.191406 -31.484375 9.421875 -31.234375 C 9.648438 -30.984375 9.765625 -30.664062 9.765625 -30.28125 C 9.691406 -29.125 9.613281 -27.742188 9.53125 -26.140625 C 9.457031 -24.546875 9.378906 -22.941406 9.296875 -21.328125 C 10.921875 -24.710938 12.691406 -27.210938 14.609375 -28.828125 C 16.535156 -30.453125 18.582031 -31.265625 20.75 -31.265625 C 22.207031 -31.265625 23.539062 -30.847656 24.75 -30.015625 C 25.96875 -29.191406 27.019531 -28.101562 27.90625 -26.75 C 28.789062 -25.40625 29.472656 -23.90625 29.953125 -22.25 C 30.441406 -20.59375 30.6875 -18.9375 30.6875 -17.28125 C 30.6875 -14.769531 30.304688 -12.4375 29.546875 -10.28125 C 28.796875 -8.125 27.765625 -6.238281 26.453125 -4.625 C 25.148438 -3.007812 23.628906 -1.75 21.890625 -0.84375 C 20.160156 0.0625 18.316406 0.515625 16.359375 0.515625 C 14.960938 0.515625 13.5625 0.238281 12.15625 -0.3125 C 10.75 -0.875 9.53125 -1.597656 8.5 -2.484375 C 8.382812 0.210938 8.226562 3.023438 8.03125 5.953125 C 7.84375 8.878906 7.648438 11.863281 7.453125 14.90625 C 7.410156 15.289062 7.273438 15.609375 7.046875 15.859375 C 6.816406 16.109375 6.453125 16.234375 5.953125 16.234375 Z M 16.40625 -2.140625 C 17.757812 -2.140625 19.097656 -2.484375 20.421875 -3.171875 C 21.753906 -3.867188 22.96875 -4.867188 24.0625 -6.171875 C 25.164062 -7.484375 26.050781 -9.0625 26.71875 -10.90625 C 27.394531 -12.757812 27.734375 -14.804688 27.734375 -17.046875 C 27.734375 -18.503906 27.550781 -19.914062 27.1875 -21.28125 C 26.820312 -22.65625 26.289062 -23.890625 25.59375 -24.984375 C 24.90625 -26.085938 24.125 -26.957031 23.25 -27.59375 C 22.382812 -28.226562 21.429688 -28.546875 20.390625 -28.546875 C 19.046875 -28.546875 17.804688 -28.140625 16.671875 -27.328125 C 15.535156 -26.515625 14.503906 -25.472656 13.578125 -24.203125 C 12.648438 -22.929688 11.8125 -21.5625 11.0625 -20.09375 C 10.3125 -18.632812 9.648438 -17.234375 9.078125 -15.890625 C 8.992188 -14.117188 8.921875 -12.382812 8.859375 -10.6875 C 8.804688 -8.988281 8.742188 -7.238281 8.671875 -5.4375 C 9.710938 -4.394531 10.953125 -3.582031 12.390625 -3 C 13.835938 -2.425781 15.175781 -2.140625 16.40625 -2.140625 Z M 16.40625 -2.140625 "/></g></g><g style="fill:#ffffff;fill-opacity:1;"><g transform="translate(335.706966, 166.212701)"><path style="stroke:none" d="M 15.953125 -0.109375 C 14.097656 -0.109375 12.398438 -0.503906 10.859375 -1.296875 C 9.316406 -2.085938 7.976562 -3.1875 6.84375 -4.59375 C 5.707031 -6 4.832031 -7.597656 4.21875 -9.390625 C 3.601562 -11.179688 3.296875 -13.054688 3.296875 -15.015625 C 3.296875 -17.023438 3.695312 -18.992188 4.5 -20.921875 C 5.3125 -22.847656 6.410156 -24.585938 7.796875 -26.140625 C 9.179688 -27.703125 10.769531 -28.945312 12.5625 -29.875 C 14.351562 -30.800781 16.210938 -31.265625 18.140625 -31.265625 C 19.566406 -31.265625 20.847656 -30.9375 21.984375 -30.28125 C 23.117188 -29.625 24.015625 -28.734375 24.671875 -27.609375 C 25.328125 -26.492188 25.65625 -25.242188 25.65625 -23.859375 C 25.65625 -22.316406 25.296875 -20.929688 24.578125 -19.703125 C 23.867188 -18.472656 22.765625 -17.394531 21.265625 -16.46875 C 19.492188 -15.3125 17.351562 -14.453125 14.84375 -13.890625 C 12.34375 -13.335938 9.472656 -13.003906 6.234375 -12.890625 C 6.503906 -11.078125 7.09375 -9.390625 8 -7.828125 C 8.90625 -6.265625 10.050781 -5.019531 11.4375 -4.09375 C 12.820312 -3.175781 14.34375 -2.71875 16 -2.71875 C 17.65625 -2.71875 19.207031 -3.140625 20.65625 -3.984375 C 22.101562 -4.835938 23.476562 -6.070312 24.78125 -7.6875 C 24.976562 -7.914062 25.160156 -8.085938 25.328125 -8.203125 C 25.503906 -8.316406 25.691406 -8.375 25.890625 -8.375 C 26.117188 -8.375 26.335938 -8.304688 26.546875 -8.171875 C 26.765625 -8.035156 26.929688 -7.867188 27.046875 -7.671875 C 27.160156 -7.484375 27.21875 -7.273438 27.21875 -7.046875 C 27.25 -6.859375 27.207031 -6.644531 27.09375 -6.40625 C 26.976562 -6.175781 26.804688 -5.910156 26.578125 -5.609375 C 25.304688 -3.984375 23.726562 -2.660156 21.84375 -1.640625 C 19.957031 -0.617188 17.992188 -0.109375 15.953125 -0.109375 Z M 6.125 -15.484375 C 8.625 -15.523438 11 -15.765625 13.25 -16.203125 C 15.507812 -16.648438 17.375 -17.296875 18.84375 -18.140625 C 20.03125 -18.753906 20.988281 -19.570312 21.71875 -20.59375 C 22.457031 -21.613281 22.828125 -22.742188 22.828125 -23.984375 C 22.828125 -24.785156 22.613281 -25.550781 22.1875 -26.28125 C 21.757812 -27.019531 21.191406 -27.609375 20.484375 -28.046875 C 19.773438 -28.492188 18.957031 -28.71875 18.03125 -28.71875 C 16.53125 -28.71875 15.082031 -28.347656 13.6875 -27.609375 C 12.300781 -26.878906 11.050781 -25.890625 9.9375 -24.640625 C 8.820312 -23.390625 7.925781 -21.960938 7.25 -20.359375 C 6.570312 -18.765625 6.195312 -17.140625 6.125 -15.484375 Z M 6.125 -15.484375 "/></g></g><g style="fill:#ffffff;fill-opacity:1;"><g transform="translate(365.86659, 166.212701)"><path style="stroke:none" d="M 6.640625 -29.8125 C 6.640625 -30.3125 6.773438 -30.6875 7.046875 -30.9375 C 7.316406 -31.1875 7.664062 -31.3125 8.09375 -31.3125 C 8.550781 -31.3125 8.925781 -31.1875 9.21875 -30.9375 C 9.507812 -30.6875 9.65625 -30.3125 9.65625 -29.8125 C 9.65625 -29.3125 9.632812 -28.675781 9.59375 -27.90625 C 9.550781 -27.132812 9.519531 -26.390625 9.5 -25.671875 C 9.476562 -24.960938 9.429688 -24.378906 9.359375 -23.921875 C 10.785156 -26.503906 12.226562 -28.375 13.6875 -29.53125 C 15.15625 -30.6875 16.796875 -31.265625 18.609375 -31.265625 C 19.648438 -31.265625 20.726562 -31.050781 21.84375 -30.625 C 22.957031 -30.195312 23.9375 -29.617188 24.78125 -28.890625 C 25.050781 -28.703125 25.242188 -28.488281 25.359375 -28.25 C 25.484375 -28.019531 25.523438 -27.769531 25.484375 -27.5 C 25.484375 -27.113281 25.363281 -26.796875 25.125 -26.546875 C 24.894531 -26.296875 24.609375 -26.171875 24.265625 -26.171875 C 24.035156 -26.171875 23.8125 -26.21875 23.59375 -26.3125 C 23.382812 -26.414062 23.144531 -26.582031 22.875 -26.8125 C 22.257812 -27.351562 21.59375 -27.785156 20.875 -28.109375 C 20.164062 -28.441406 19.351562 -28.609375 18.4375 -28.609375 C 16.582031 -28.609375 14.910156 -27.691406 13.421875 -25.859375 C 11.941406 -24.023438 10.550781 -21.429688 9.25 -18.078125 C 9.164062 -16.734375 9.101562 -15.269531 9.0625 -13.6875 C 9.03125 -12.113281 8.992188 -10.535156 8.953125 -8.953125 C 8.910156 -7.378906 8.878906 -5.878906 8.859375 -4.453125 C 8.847656 -3.023438 8.84375 -1.769531 8.84375 -0.6875 C 8.84375 -0.34375 8.773438 -0.0664062 8.640625 0.140625 C 8.503906 0.359375 8.328125 0.515625 8.109375 0.609375 C 7.898438 0.703125 7.644531 0.75 7.34375 0.75 C 6.875 0.75 6.515625 0.566406 6.265625 0.203125 C 6.015625 -0.160156 5.832031 -0.671875 5.71875 -1.328125 C 5.601562 -1.984375 5.546875 -2.773438 5.546875 -3.703125 C 5.546875 -4.472656 5.570312 -5.460938 5.625 -6.671875 C 5.6875 -7.890625 5.765625 -9.148438 5.859375 -10.453125 C 5.960938 -11.765625 6.070312 -12.921875 6.1875 -13.921875 Z M 6.640625 -29.8125 "/></g></g><g style="fill:#ffffff;fill-opacity:1;"><g transform="translate(392.039582, 166.212701)"><path style="stroke:none" d="M 8.328125 -0.578125 C 8.242188 -0.234375 8.078125 0.0234375 7.828125 0.203125 C 7.578125 0.378906 7.238281 0.46875 6.8125 0.46875 C 6.351562 0.46875 6.007812 0.3125 5.78125 0 C 5.550781 -0.3125 5.453125 -0.753906 5.484375 -1.328125 C 6.023438 -5.910156 6.429688 -10.03125 6.703125 -13.6875 C 6.972656 -17.351562 7.15625 -20.773438 7.25 -23.953125 C 7.34375 -27.128906 7.390625 -30.25 7.390625 -33.3125 C 7.390625 -36.375 7.351562 -39.582031 7.28125 -42.9375 C 7.238281 -43.4375 7.367188 -43.828125 7.671875 -44.109375 C 7.984375 -44.398438 8.351562 -44.546875 8.78125 -44.546875 C 9.125 -44.546875 9.410156 -44.46875 9.640625 -44.3125 C 9.878906 -44.164062 10.132812 -43.859375 10.40625 -43.390625 C 11.90625 -40.804688 13.359375 -38.269531 14.765625 -35.78125 C 16.171875 -33.300781 17.566406 -30.828125 18.953125 -28.359375 C 20.335938 -25.898438 21.742188 -23.410156 23.171875 -20.890625 C 24.597656 -18.367188 26.039062 -15.757812 27.5 -13.0625 C 29.125 -15.375 30.710938 -17.75 32.265625 -20.1875 C 33.828125 -22.632812 35.347656 -25.117188 36.828125 -27.640625 C 38.316406 -30.171875 39.742188 -32.695312 41.109375 -35.21875 C 42.472656 -37.738281 43.753906 -40.210938 44.953125 -42.640625 C 45.148438 -43.066406 45.378906 -43.375 45.640625 -43.5625 C 45.910156 -43.757812 46.316406 -43.859375 46.859375 -43.859375 C 47.316406 -43.859375 47.671875 -43.691406 47.921875 -43.359375 C 48.179688 -43.035156 48.3125 -42.625 48.3125 -42.125 C 48.382812 -38.882812 48.421875 -35.9375 48.421875 -33.28125 C 48.421875 -30.625 48.398438 -28.003906 48.359375 -25.421875 C 48.328125 -22.835938 48.269531 -20.046875 48.1875 -17.046875 C 48.113281 -14.460938 48.007812 -11.8125 47.875 -9.09375 C 47.738281 -6.382812 47.570312 -3.566406 47.375 -0.640625 C 47.34375 -0.140625 47.191406 0.222656 46.921875 0.453125 C 46.648438 0.691406 46.285156 0.8125 45.828125 0.8125 C 45.316406 0.8125 44.9375 0.691406 44.6875 0.453125 C 44.4375 0.222656 44.332031 -0.140625 44.375 -0.640625 L 44.953125 -10.28125 C 45.066406 -12.09375 45.148438 -13.921875 45.203125 -15.765625 C 45.265625 -17.617188 45.320312 -19.613281 45.375 -21.75 C 45.4375 -23.894531 45.476562 -26.253906 45.5 -28.828125 C 45.519531 -31.410156 45.550781 -34.335938 45.59375 -37.609375 C 44.082031 -34.679688 42.5 -31.765625 40.84375 -28.859375 C 39.1875 -25.953125 37.382812 -22.96875 35.4375 -19.90625 C 33.5 -16.84375 31.351562 -13.65625 29 -10.34375 C 28.738281 -9.957031 28.472656 -9.675781 28.203125 -9.5 C 27.929688 -9.332031 27.640625 -9.25 27.328125 -9.25 C 27.054688 -9.25 26.796875 -9.34375 26.546875 -9.53125 C 26.296875 -9.726562 26.035156 -10.019531 25.765625 -10.40625 C 24.691406 -12.363281 23.488281 -14.476562 22.15625 -16.75 C 20.832031 -19.03125 19.472656 -21.390625 18.078125 -23.828125 C 16.691406 -26.273438 15.332031 -28.710938 14 -31.140625 C 12.675781 -33.566406 11.421875 -35.898438 10.234375 -38.140625 C 10.234375 -34.085938 10.210938 -30.359375 10.171875 -26.953125 C 10.128906 -23.546875 10.039062 -20.359375 9.90625 -17.390625 C 9.769531 -14.421875 9.566406 -11.566406 9.296875 -8.828125 C 9.023438 -6.097656 8.703125 -3.347656 8.328125 -0.578125 Z M 8.328125 -0.578125 "/></g></g><g style="fill:#ffffff;fill-opacity:1;"><g transform="translate(446.292228, 166.212701)"><path style="stroke:none" d="M 6.984375 -29.53125 C 6.984375 -29.875 7.039062 -30.148438 7.15625 -30.359375 C 7.28125 -30.578125 7.457031 -30.742188 7.6875 -30.859375 C 7.914062 -30.972656 8.164062 -31.03125 8.4375 -31.03125 C 8.894531 -31.03125 9.25 -30.910156 9.5 -30.671875 C 9.75 -30.441406 9.875 -30.0625 9.875 -29.53125 C 9.875 -26.5625 9.835938 -23.929688 9.765625 -21.640625 C 9.691406 -19.347656 9.601562 -17.160156 9.5 -15.078125 C 9.40625 -12.992188 9.316406 -10.804688 9.234375 -8.515625 C 9.160156 -6.222656 9.109375 -3.613281 9.078125 -0.6875 C 9.078125 -0.15625 8.953125 0.234375 8.703125 0.484375 C 8.453125 0.734375 8.113281 0.859375 7.6875 0.859375 C 7.257812 0.859375 6.9375 0.757812 6.71875 0.5625 C 6.507812 0.375 6.367188 0.140625 6.296875 -0.140625 C 6.222656 -0.429688 6.1875 -0.734375 6.1875 -1.046875 C 6.1875 -1.460938 6.210938 -2.410156 6.265625 -3.890625 C 6.328125 -5.378906 6.394531 -7.191406 6.46875 -9.328125 C 6.550781 -11.460938 6.640625 -13.734375 6.734375 -16.140625 C 6.828125 -18.554688 6.890625 -20.9375 6.921875 -23.28125 C 6.960938 -25.632812 6.984375 -27.71875 6.984375 -29.53125 Z M 6.1875 -41.421875 C 6.1875 -41.847656 6.269531 -42.289062 6.4375 -42.75 C 6.613281 -43.21875 6.863281 -43.601562 7.1875 -43.90625 C 7.519531 -44.21875 7.914062 -44.375 8.375 -44.375 C 9.070312 -44.375 9.59375 -44.226562 9.9375 -43.9375 C 10.28125 -43.65625 10.507812 -43.289062 10.625 -42.84375 C 10.75 -42.40625 10.8125 -42.007812 10.8125 -41.65625 C 10.8125 -40.925781 10.578125 -40.269531 10.109375 -39.6875 C 9.648438 -39.113281 9.070312 -38.828125 8.375 -38.828125 C 7.757812 -38.828125 7.238281 -39.097656 6.8125 -39.640625 C 6.394531 -40.179688 6.1875 -40.773438 6.1875 -41.421875 Z M 6.1875 -41.421875 "/></g></g><g style="fill:#ffffff;fill-opacity:1;"><g transform="translate(461.949794, 166.212701)"><path style="stroke:none" d="M 6.8125 -30.734375 C 6.894531 -31.117188 7.078125 -31.40625 7.359375 -31.59375 C 7.648438 -31.789062 7.988281 -31.890625 8.375 -31.890625 C 8.800781 -31.890625 9.140625 -31.753906 9.390625 -31.484375 C 9.640625 -31.222656 9.742188 -30.859375 9.703125 -30.390625 C 9.671875 -29.703125 9.613281 -28.921875 9.53125 -28.046875 C 9.457031 -27.179688 9.378906 -26.273438 9.296875 -25.328125 C 9.222656 -24.390625 9.164062 -23.457031 9.125 -22.53125 C 10.050781 -24.382812 11.109375 -25.992188 12.296875 -27.359375 C 13.492188 -28.722656 14.765625 -29.769531 16.109375 -30.5 C 17.460938 -31.238281 18.851562 -31.609375 20.28125 -31.609375 C 23.519531 -31.609375 25.925781 -30.519531 27.5 -28.34375 C 29.082031 -26.164062 29.875 -23 29.875 -18.84375 C 29.875 -16.71875 29.75 -14.65625 29.5 -12.65625 C 29.25 -10.65625 29 -8.707031 28.75 -6.8125 C 28.5 -4.925781 28.375 -3.097656 28.375 -1.328125 C 28.375 -0.710938 28.238281 -0.242188 27.96875 0.078125 C 27.695312 0.410156 27.332031 0.578125 26.875 0.578125 C 26.445312 0.578125 26.109375 0.441406 25.859375 0.171875 C 25.609375 -0.0976562 25.484375 -0.5625 25.484375 -1.21875 C 25.484375 -3.175781 25.609375 -5.132812 25.859375 -7.09375 C 26.109375 -9.0625 26.359375 -11.03125 26.609375 -13 C 26.859375 -14.96875 26.984375 -16.914062 26.984375 -18.84375 C 26.984375 -21.226562 26.710938 -23.148438 26.171875 -24.609375 C 25.628906 -26.078125 24.847656 -27.15625 23.828125 -27.84375 C 22.804688 -28.539062 21.566406 -28.890625 20.109375 -28.890625 C 18.878906 -28.890625 17.6875 -28.503906 16.53125 -27.734375 C 15.375 -26.960938 14.289062 -25.941406 13.28125 -24.671875 C 12.28125 -23.398438 11.40625 -21.984375 10.65625 -20.421875 C 9.90625 -18.859375 9.300781 -17.289062 8.84375 -15.71875 C 8.84375 -13.019531 8.765625 -10.359375 8.609375 -7.734375 C 8.453125 -5.117188 8.316406 -2.789062 8.203125 -0.75 C 8.160156 -0.289062 8.015625 0.0507812 7.765625 0.28125 C 7.515625 0.519531 7.160156 0.640625 6.703125 0.640625 C 6.359375 0.640625 6.066406 0.539062 5.828125 0.34375 C 5.597656 0.15625 5.445312 -0.128906 5.375 -0.515625 C 5.300781 -0.898438 5.242188 -1.328125 5.203125 -1.796875 C 5.160156 -3.140625 5.207031 -4.859375 5.34375 -6.953125 C 5.476562 -9.054688 5.703125 -11.378906 6.015625 -13.921875 C 6.046875 -16.191406 6.082031 -18.132812 6.125 -19.75 C 6.164062 -21.375 6.210938 -22.789062 6.265625 -24 C 6.328125 -25.21875 6.40625 -26.351562 6.5 -27.40625 C 6.59375 -28.46875 6.695312 -29.578125 6.8125 -30.734375 Z M 6.8125 -30.734375 "/></g></g><g style="fill:#ffffff;fill-opacity:1;"><g transform="translate(496.442669, 166.212701)"><path style="stroke:none" d="M 26.234375 -46.21875 C 26.273438 -46.71875 26.425781 -47.09375 26.6875 -47.34375 C 26.957031 -47.601562 27.285156 -47.734375 27.671875 -47.734375 C 28.140625 -47.734375 28.503906 -47.601562 28.765625 -47.34375 C 29.035156 -47.09375 29.15625 -46.703125 29.125 -46.171875 C 28.625 -39.578125 28.1875 -32.492188 27.8125 -24.921875 C 27.445312 -17.359375 27.09375 -9.242188 26.75 -0.578125 C 26.75 -0.117188 26.601562 0.210938 26.3125 0.421875 C 26.03125 0.640625 25.675781 0.75 25.25 0.75 C 24.863281 0.75 24.535156 0.625 24.265625 0.375 C 23.992188 0.125 23.878906 -0.226562 23.921875 -0.6875 C 23.960938 -1.457031 24.007812 -2.34375 24.0625 -3.34375 C 24.125 -4.351562 24.171875 -5.414062 24.203125 -6.53125 C 24.242188 -7.644531 24.304688 -8.757812 24.390625 -9.875 C 23.578125 -7.832031 22.550781 -6.03125 21.3125 -4.46875 C 20.082031 -2.914062 18.753906 -1.695312 17.328125 -0.8125 C 15.910156 0.0703125 14.488281 0.515625 13.0625 0.515625 C 11.59375 0.515625 10.257812 0.148438 9.0625 -0.578125 C 7.875 -1.304688 6.847656 -2.328125 5.984375 -3.640625 C 5.117188 -4.953125 4.441406 -6.4375 3.953125 -8.09375 C 3.472656 -9.75 3.234375 -11.484375 3.234375 -13.296875 C 3.234375 -15.640625 3.617188 -17.890625 4.390625 -20.046875 C 5.160156 -22.203125 6.21875 -24.097656 7.5625 -25.734375 C 8.914062 -27.378906 10.488281 -28.679688 12.28125 -29.640625 C 14.070312 -30.609375 15.988281 -31.09375 18.03125 -31.09375 C 19.257812 -31.09375 20.488281 -30.867188 21.71875 -30.421875 C 22.957031 -29.972656 24.078125 -29.347656 25.078125 -28.546875 C 25.191406 -30.316406 25.304688 -32.210938 25.421875 -34.234375 C 25.535156 -36.253906 25.660156 -38.296875 25.796875 -40.359375 C 25.929688 -42.421875 26.078125 -44.375 26.234375 -46.21875 Z M 6.1875 -13.0625 C 6.1875 -11.175781 6.503906 -9.394531 7.140625 -7.71875 C 7.773438 -6.039062 8.640625 -4.691406 9.734375 -3.671875 C 10.835938 -2.648438 12.003906 -2.140625 13.234375 -2.140625 C 14.304688 -2.140625 15.378906 -2.492188 16.453125 -3.203125 C 17.535156 -3.921875 18.554688 -4.882812 19.515625 -6.09375 C 20.484375 -7.3125 21.34375 -8.660156 22.09375 -10.140625 C 22.851562 -11.617188 23.441406 -13.128906 23.859375 -14.671875 C 23.898438 -14.898438 23.976562 -15.171875 24.09375 -15.484375 C 24.207031 -15.796875 24.363281 -16.023438 24.5625 -16.171875 L 24.90625 -25.59375 C 24.019531 -26.476562 22.921875 -27.160156 21.609375 -27.640625 C 20.296875 -28.128906 19.046875 -28.375 17.859375 -28.375 C 15.773438 -28.375 13.851562 -27.71875 12.09375 -26.40625 C 10.34375 -25.09375 8.921875 -23.269531 7.828125 -20.9375 C 6.734375 -18.613281 6.1875 -15.988281 6.1875 -13.0625 Z M 6.1875 -13.0625 "/></g></g><g style="fill:#ffffff;fill-opacity:1;"><g transform="translate(529.491133, 166.212701)"><path style="stroke:none" d="M 8.671875 -11.5625 C 8.015625 -11.5625 7.578125 -11.800781 7.359375 -12.28125 C 7.148438 -12.757812 7.066406 -13.328125 7.109375 -13.984375 C 7.148438 -14.328125 7.1875 -15.085938 7.21875 -16.265625 C 7.257812 -17.441406 7.304688 -18.914062 7.359375 -20.6875 C 7.421875 -22.457031 7.488281 -24.375 7.5625 -26.4375 C 7.644531 -28.5 7.710938 -30.566406 7.765625 -32.640625 C 7.828125 -34.722656 7.882812 -36.695312 7.9375 -38.5625 C 8 -40.4375 8.050781 -42.046875 8.09375 -43.390625 C 8.09375 -43.929688 8.222656 -44.328125 8.484375 -44.578125 C 8.753906 -44.828125 9.125 -44.953125 9.59375 -44.953125 C 10.050781 -44.953125 10.414062 -44.828125 10.6875 -44.578125 C 10.957031 -44.328125 11.070312 -43.929688 11.03125 -43.390625 C 10.914062 -40.578125 10.816406 -38.1875 10.734375 -36.21875 C 10.660156 -34.257812 10.59375 -32.476562 10.53125 -30.875 C 10.476562 -29.28125 10.429688 -27.664062 10.390625 -26.03125 C 10.359375 -24.394531 10.320312 -22.554688 10.28125 -20.515625 C 10.25 -18.472656 10.191406 -16.003906 10.109375 -13.109375 C 10.066406 -12.648438 9.929688 -12.273438 9.703125 -11.984375 C 9.472656 -11.703125 9.128906 -11.5625 8.671875 -11.5625 Z M 8.375 0.75 C 7.757812 0.75 7.238281 0.488281 6.8125 -0.03125 C 6.394531 -0.550781 6.1875 -1.15625 6.1875 -1.84375 C 6.1875 -2.539062 6.394531 -3.128906 6.8125 -3.609375 C 7.238281 -4.085938 7.816406 -4.328125 8.546875 -4.328125 C 9.160156 -4.367188 9.660156 -4.15625 10.046875 -3.6875 C 10.429688 -3.226562 10.625 -2.671875 10.625 -2.015625 C 10.625 -1.210938 10.421875 -0.550781 10.015625 -0.03125 C 9.617188 0.488281 9.070312 0.75 8.375 0.75 Z M 8.375 0.75 "/></g></g></g></svg>